<svg xmlns="http://www.w3.org/2000/svg" width="100" height="71.289" viewBox="0 0 100 71.289"><defs><style>.a{fill:#f5f6f7;}.b{fill:#dfe1e6;}.c{fill:#6e73bd;}.d{fill:#a9acd8;}.e{fill:#91f20d;}.f{fill:#7dd505;}</style></defs><g transform="translate(0 -73.5)"><path class="a" d="M93.961,195.969H6.039A6.039,6.039,0,0,1,0,189.93V137.1H100V189.93A6.039,6.039,0,0,1,93.961,195.969Z" transform="translate(0 -51.18)"/><path class="b" d="M481.1,137.1v58.867a6.039,6.039,0,0,0,6.036-6.041V137.1Z" transform="translate(-387.131 -51.18)"/><g transform="translate(8.718 99.295)"><path class="c" d="M56.205,232.2a1.465,1.465,0,0,0-2.071,0l-9.069,9.069a1.465,1.465,0,0,0,0,2.072l8.948,8.948a1.465,1.465,0,1,0,2.071-2.072L48.173,242.3l8.033-8.033a1.465,1.465,0,0,0,0-2.072Z" transform="translate(-44.636 -226.654)"/><path class="c" d="M216.855,241.267l-9.069-9.069a1.465,1.465,0,0,0-2.071,2.072l8.033,8.033-7.913,7.913a1.465,1.465,0,0,0,2.071,2.072l8.949-8.948A1.465,1.465,0,0,0,216.855,241.267Z" transform="translate(-173.909 -226.653)"/><path class="c" d="M133.456,205.668a1.464,1.464,0,0,0-1.889.85l-10.723,28.25a1.465,1.465,0,1,0,2.739,1.039l10.723-28.25A1.465,1.465,0,0,0,133.456,205.668Z" transform="translate(-105.882 -205.572)"/></g><path class="d" d="M334.921,209.36h-9.457a3.018,3.018,0,1,1,0-6.036h9.457a3.018,3.018,0,1,1,0,6.036Z" transform="translate(-259.468 -104.468)"/><path class="e" d="M350.414,271.171h-24.95a3.018,3.018,0,1,1,0-6.036h24.95a3.018,3.018,0,0,1,0,6.036Z" transform="translate(-259.468 -154.206)"/><path class="d" d="M343,332.982H325.464a3.018,3.018,0,1,1,0-6.036H343a3.018,3.018,0,1,1,0,6.036Z" transform="translate(-259.468 -203.945)"/><path class="e" d="M100,88H0V79.539A6.039,6.039,0,0,1,6.039,73.5H93.961A6.039,6.039,0,0,1,100,79.539Z" transform="translate(0 0)"/><path class="f" d="M481.1,73.5V88h6.036V79.541A6.039,6.039,0,0,0,481.1,73.5Z" transform="translate(-387.131 0)"/><circle class="a" cx="3.018" cy="3.018" r="3.018" transform="translate(6.641 77.831)"/><circle class="a" cx="3.018" cy="3.018" r="3.018" transform="translate(18.343 77.831)"/><circle class="a" cx="3.018" cy="3.018" r="3.018" transform="translate(30.045 77.831)"/></g></svg>