<svg xmlns="http://www.w3.org/2000/svg" width="104" height="90.971" viewBox="0 0 104 90.971"><defs><style>.a{fill:#c2c4c8;}.b{fill:#a5a7aa;}.c{fill:#f5f6f7;}.d{fill:#dfe1e6;}.e{fill:#6e73bd;}.f{fill:#a9acd8;}.g{fill:#91f20d;}.h{fill:#7dd505;}.i{fill:#fff;}</style></defs><g transform="translate(0 0)"><path class="a" d="M107.821,32.071H35.139a6.874,6.874,0,0,0-6.866,6.866v51.5a6.91,6.91,0,0,0,5.783,6.779l1.237.987H106.6l2.3-.987a6.91,6.91,0,0,0,5.783-6.779v-51.5A6.874,6.874,0,0,0,107.821,32.071Z" transform="translate(-22.53 -32.071)"/><path class="b" d="M34.823,90.437v-51.5a6.874,6.874,0,0,1,6.866-6.866h-6.55a6.874,6.874,0,0,0-6.866,6.866v51.5a6.91,6.91,0,0,0,5.783,6.779l1.237.987h6.55l-1.237-.987A6.91,6.91,0,0,1,34.823,90.437Z" transform="translate(-22.53 -32.072)"/><path class="c" d="M131.88,91.772h-72l-1.246,1.3v44.373a1.232,1.232,0,0,0,1.232,1.232h71.614a1.232,1.232,0,0,0,1.232-1.232V93.073Z" transform="translate(-46.727 -79.645)"/><path class="d" d="M66.645,137.446V93.073l1.246-1.3H59.884l-1.246,1.3v44.373a1.232,1.232,0,0,0,1.232,1.232h8.007A1.232,1.232,0,0,1,66.645,137.446Z" transform="translate(-46.727 -79.645)"/><path class="e" d="M66.645,62.209H59.87a1.232,1.232,0,0,0-1.232,1.232v6.074h8.007l.527-.562V62.6Z" transform="translate(-46.727 -56.087)"/><path class="f" d="M162.9,62.209H98.059v7.306h66.07V63.441A1.232,1.232,0,0,0,162.9,62.209Z" transform="translate(-78.141 -56.087)"/><path class="d" d="M96.753,352.784H1.146A1.152,1.152,0,0,0,0,353.942v3.982a5.361,5.361,0,0,0,5.319,5.371H92.58a5.361,5.361,0,0,0,5.319-5.371v-3.982a1.152,1.152,0,0,0-1.146-1.158Z" transform="translate(0 -287.639)"/><path class="a" d="M11.911,357.922v-3.982a1.152,1.152,0,0,1,1.146-1.158H1.146A1.152,1.152,0,0,0,0,353.941v3.982a5.361,5.361,0,0,0,5.319,5.371H17.23A5.361,5.361,0,0,1,11.911,357.922Z" transform="translate(0 -287.638)"/></g><path class="a" d="M374.6,224.263V183.388l1.09-1.031v-4.592a4.27,4.27,0,0,0-4.27-4.27H345.218a4.27,4.27,0,0,0-4.27,4.27v4.592l1.221,1.1v41.189l-1.221.756v6.067a4.27,4.27,0,0,0,4.27,4.27h26.206a4.27,4.27,0,0,0,4.27-4.27V225.4Z" transform="translate(-271.693 -144.768)"/><path class="b" d="M347.243,231.47V225.4l1.221-.756V183.458l-1.221-1.1v-4.592a4.27,4.27,0,0,1,4.27-4.27h-6.3a4.27,4.27,0,0,0-4.27,4.27v4.592l1.221,1.1v41.189l-1.221.756v6.067a4.27,4.27,0,0,0,4.27,4.27h6.3A4.27,4.27,0,0,1,347.243,231.47Z" transform="translate(-271.693 -144.768)"/><circle class="g" cx="13.124" cy="13.124" r="13.124" transform="translate(34.779 23.106)"/><path class="h" d="M176.245,158.948a13.126,13.126,0,0,1,10.613-12.881,13.124,13.124,0,1,0,0,25.762A13.126,13.126,0,0,1,176.245,158.948Z" transform="translate(-136.443 -122.718)"/><path class="i" d="M225.614,184.594,218.88,180a1.645,1.645,0,0,0-2.572,1.359v9.184a1.645,1.645,0,0,0,2.572,1.359l6.735-4.592A1.645,1.645,0,0,0,225.614,184.594Z" transform="translate(-172.37 -149.724)"/><path class="c" d="M221.329,181.673,218.879,180a1.645,1.645,0,0,0-2.572,1.359v9.184a1.645,1.645,0,0,0,2.572,1.359l2.45-1.671Z" transform="translate(-172.37 -149.724)"/><path class="c" d="M340.948,246.581h34.745v37.062H340.948Z" transform="translate(-271.693 -203.009)"/><path class="d" d="M340.948,246.581h6.295v37.062h-6.295Z" transform="translate(-271.693 -203.009)"/><g transform="translate(83.39 83.903)"><path class="b" d="M415.441,448.272h-3.336a1.569,1.569,0,0,1,0-3.139h3.336a1.569,1.569,0,0,1,0,3.139Z" transform="translate(-410.536 -445.133)"/></g><ellipse class="g" cx="11.422" cy="11.422" rx="11.422" ry="11.422" transform="translate(75.205 50.621)"/><path class="h" d="M374.558,292.7a11.424,11.424,0,0,1,9.264-11.216,11.422,11.422,0,1,0,0,22.432A11.424,11.424,0,0,1,374.558,292.7Z" transform="translate(-295.037 -230.659)"/><path class="e" d="M340.948,217.122h6.4V223.4h-6.4Z" transform="translate(-271.693 -179.534)"/><path class="f" d="M371.936,217.122V223.4h28.45v-6.281Z" transform="translate(-296.387 -179.534)"/><path class="i" d="M417.58,315.024l-5.861-4a1.432,1.432,0,0,0-2.238,1.183V320.2a1.432,1.432,0,0,0,2.238,1.183l5.861-4A1.432,1.432,0,0,0,417.58,315.024Z" transform="translate(-326.304 -254.164)"/><path class="c" d="M413.8,312.444l-2.078-1.417a1.432,1.432,0,0,0-2.238,1.183V320.2a1.432,1.432,0,0,0,2.238,1.183l2.078-1.417Z" transform="translate(-326.304 -254.164)"/></svg>