<svg xmlns="http://www.w3.org/2000/svg" width="135.593" height="200" viewBox="0 0 135.593 200"><defs><style>.a{fill:#fdc8a2;}.b{fill:#fdbf92;}.c{fill:#ebeced;}.d{fill:#dfe1e6;}.e{fill:#010a8b;}.f{fill:#000766;}.g{fill:#242caa;}.h{fill:#91563a;}.i{fill:#fdb683;}.j{fill:#743b20;}.k{fill:#7a432a;}.l{fill:#fcb079;}</style></defs><g transform="translate(-96 -24)"><path class="a" d="M231.593,357.695V305.778a20.339,20.339,0,0,0-15.406-19.732l-25.272-6.318-10.169-10.169V256h-33.9v13.559l-10.169,10.169-25.272,6.318A20.339,20.339,0,0,0,96,305.778v51.917" transform="translate(0 -133.695)"/><path class="b" d="M249.9,256v15.847q-.852.515-1.729.966c-9.729,5.008-22.783,4.675-32.169-.966V256Z" transform="translate(-69.153 -133.695)"/><path class="c" d="M231.593,389.966V338.05a20.339,20.339,0,0,0-15.406-19.732L190.915,312c-10.8,22.946-43.439,22.946-54.237,0l-25.272,6.318A20.339,20.339,0,0,0,96,338.05v51.917" transform="translate(0 -165.966)"/><path class="d" d="M246.923,371.768a39.635,39.635,0,0,1-8.863-.952l1.637-6.579c.12.03,12.141,2.887,20.89-2.824l3.668-3.058,4.341,5.208-3.814,3.178a3.448,3.448,0,0,1-.29.217c-5.774,3.849-12.4,4.811-17.569,4.811Z" transform="translate(-81.865 -192.679)"/><path class="e" d="M346.847,324.22v51.915H296V288l10.169,10.169,25.271,6.318A20.339,20.339,0,0,1,346.847,324.22Z" transform="translate(-115.254 -152.136)"/><path class="f" d="M352,416h6.78v33.9H352Z" transform="translate(-147.525 -225.898)"/><path class="f" d="M382.669,345.136l-15.661,21.847-5.508-3.949,17.025-23.754A20.362,20.362,0,0,1,382.669,345.136Z" transform="translate(-153 -181.687)"/><path class="g" d="M306.169,298.169l13.559,16.949-13.559,6.78,6.78,10.169L296,365.966V288Z" transform="translate(-115.254 -152.136)"/><path class="e" d="M146.847,288v88.136H96V324.22a20.339,20.339,0,0,1,15.408-19.733l25.27-6.318Z" transform="translate(0 -152.136)"/><path class="f" d="M144,416h6.78v33.9H144Z" transform="translate(-27.661 -225.898)"/><path class="f" d="M121.781,362.945l-5.525,3.932L100.65,344.945a20.346,20.346,0,0,1,4.17-5.835Z" transform="translate(-2.68 -181.589)"/><path class="g" d="M173.559,298.169,160,315.119l13.559,6.78-6.78,10.169,16.949,33.9V288Z" transform="translate(-36.881 -152.136)"/><path class="f" d="M176,480h6.78v6.78H176Z" transform="translate(-46.102 -262.78)"/><path class="a" d="M218.869,141.695H200.928a13.559,13.559,0,0,1-11.853-6.974l-10.515-18.927A20.342,20.342,0,0,1,176,105.916V73.9a33.9,33.9,0,0,1,67.8,0v32.018a20.342,20.342,0,0,1-2.559,9.877l-10.516,18.928A13.559,13.559,0,0,1,218.869,141.695Z" transform="translate(-46.102 -9.22)"/><path class="h" d="M205.932,151.864a5.932,5.932,0,1,1,5.932-5.932,5.932,5.932,0,0,1-5.932,5.932Z" transform="translate(-59.932 -66.847)"/><path class="h" d="M289.932,151.864a5.932,5.932,0,1,1,5.932-5.932A5.932,5.932,0,0,1,289.932,151.864Z" transform="translate(-108.339 -66.847)"/><path class="i" d="M155.864,151.729h1.695V128h-1.695a11.864,11.864,0,0,0,0,23.729Z" transform="translate(-27.661 -59.932)"/><path class="i" d="M337.695,128H336v23.729h1.695a11.864,11.864,0,1,0,0-23.729Z" transform="translate(-138.305 -59.932)"/><path class="j" d="M312,58.169,322.169,81.9V58.169A10.169,10.169,0,0,0,312,48Z" transform="translate(-124.475 -13.831)"/><path class="j" d="M186.17,58.169,176,81.9V58.169A10.17,10.17,0,0,1,186.17,48Z" transform="translate(-46.102 -13.831)"/><path class="k" d="M238.237,34.169V44.339H190.78A23.151,23.151,0,0,1,184,27.97V24h35.237a22.838,22.838,0,0,1,19,10.167Z" transform="translate(-50.712 0)"/><path class="j" d="M264.8,44.339h-7.585L247.05,24h7.585Z" transform="translate(-87.046 0)"/><path class="j" d="M224.8,44.339h-7.585L207.05,24h7.585Z" transform="translate(-63.995 0)"/><g transform="translate(156.705 81.627)"><path class="l" d="M243.276,211.457c-1.321,0-2.664-.055-4.011-.179l.623-6.751c9.306.86,18.863-2.261,18.959-2.292l2.141,6.433A62.239,62.239,0,0,1,243.276,211.457Z" transform="translate(-239.265 -184.339)"/><path class="l" d="M248,160h6.78v13.559H248Z" transform="translate(-244.299 -160)"/></g></g></svg>