<svg xmlns="http://www.w3.org/2000/svg" width="207.018" height="200" viewBox="0 0 207.018 200"><defs><style>.a{fill:#fec9a3;}.b{fill:#feb784;}.c{fill:#010a8b;}.d{fill:#dfe1e6;}.e{fill:#ebeced;}.f{fill:#c2c4c8;}.g{fill:#95573a;}.h{fill:#ebebe9;}.i{fill:#fec093;}.j{fill:#7a432a;}.k{fill:#f7a468;}.l{fill:#743b20;}.m{fill:#242caa;}</style></defs><g transform="translate(-24 -32)"><path class="a" d="M255.719,229.7V200H220.632v29.7a7.017,7.017,0,0,1-5.209,6.78l-31.795,8.479A21.053,21.053,0,0,0,168,265.3v61.019H308.351V265.3a21.052,21.052,0,0,0-15.627-20.341l-31.8-8.479A7.018,7.018,0,0,1,255.719,229.7Z" transform="translate(-80.842 -94.316)"/><path class="b" d="M309.917,238.6a23.934,23.934,0,0,0,12.46-3.527,7,7,0,0,1-2.536-5.373V200H284.754v29.7a7,7,0,0,1-2.536,5.373,23.934,23.934,0,0,0,12.46,3.527Z" transform="translate(-144.964 -94.316)"/><path class="c" d="M292.723,292.069l-30.556-8.15a24.552,24.552,0,0,1-47.982,0l-30.556,8.15A21.053,21.053,0,0,0,168,312.409v61.019H308.351V312.409a21.052,21.052,0,0,0-15.627-20.341Z" transform="translate(-80.842 -141.428)"/><path class="d" d="M168,384h28.07v45.614H168Z" transform="translate(-80.842 -197.614)"/><path class="b" d="M424,384h28.07v45.614H424Z" transform="translate(-224.561 -197.614)"/><path class="e" d="M56,456H178.807v14.035H56Z" transform="translate(-17.965 -238.035)"/><path class="e" d="M119.469,398.175H44.478a8.034,8.034,0,0,1-7.575-5.364,7.236,7.236,0,0,1-.268-.925L24.149,335.693A6.506,6.506,0,0,1,24,334.325,6.319,6.319,0,0,1,30.325,328h78.307a8.046,8.046,0,0,1,7.891,6.466l1.092,5.473,9.728,48.632a8.029,8.029,0,0,1-7.873,9.605Z" transform="translate(0 -166.175)"/><ellipse class="f" cx="6.715" cy="7.334" rx="6.715" ry="7.334" transform="matrix(0.691, -0.723, 0.723, 0.691, 63.245, 196.609)"/><path class="d" d="M399.579,429.614h-28.07L368,384h35.088Z" transform="translate(-193.123 -197.614)"/><path class="g" d="M370.461,416l1.35,17.544H402.04L403.39,416Z" transform="translate(-194.505 -215.579)"/><path class="h" d="M397.053,231.579v3.509A21.053,21.053,0,0,0,376,256.14v10.526h28.07v-7.018a7.018,7.018,0,0,1,7.018-7.018,7.018,7.018,0,0,0,7.018-7.018v-3.509a10.526,10.526,0,0,1,10.526-10.526V200A31.579,31.579,0,0,0,397.053,231.579Z" transform="translate(-197.614 -94.316)"/><path class="a" d="M415.018,416h28.07v31.579h-28.07A7.018,7.018,0,0,1,408,440.561V423.018A7.018,7.018,0,0,1,415.018,416Z" transform="translate(-215.579 -215.579)"/><path class="b" d="M403.509,120H400v21.053h3.509a10.526,10.526,0,1,0,0-21.053Z" transform="translate(-211.088 -49.404)"/><path class="b" d="M234.7,120h-.175a10.526,10.526,0,0,0,0,21.053h3.509V120Z" transform="translate(-112.281 -49.404)"/><path class="a" d="M287.579,134.737A31.579,31.579,0,0,1,256,103.158V71.579a31.579,31.579,0,0,1,63.158,0v31.579A31.579,31.579,0,0,1,287.579,134.737Z" transform="translate(-130.246 -4.491)"/><path class="i" d="M319.018,40a31.6,31.6,0,0,0-7.018.81,31.572,31.572,0,0,1,24.561,30.769v31.579A31.572,31.572,0,0,1,312,133.927a31.5,31.5,0,0,0,38.6-30.769V71.579A31.579,31.579,0,0,0,319.018,40Z" transform="translate(-161.684 -4.491)"/><ellipse class="j" cx="4.762" cy="5.556" rx="4.762" ry="5.556" transform="translate(136.709 70.08)"/><ellipse class="j" cx="4.762" cy="5.556" rx="4.762" ry="5.556" transform="translate(168.458 70.08)"/><path class="k" d="M307.509,143.14h14.035v-7.018h-9.167l5.479-16.434-6.658-2.22-7.018,21.053a3.509,3.509,0,0,0,3.328,4.619Z" transform="translate(-157.194 -47.983)"/><path class="j" d="M256,120l11.952,17.928a7.018,7.018,0,0,0,5.839,3.125h27.576a7.018,7.018,0,0,0,5.839-3.125L319.158,120v42.707A23.96,23.96,0,0,1,295.2,186.667h-15.24A23.959,23.959,0,0,1,256,162.707Z" transform="translate(-130.246 -49.404)"/><path class="l" d="M339.416,137.928a6.969,6.969,0,0,1-2.083,1.982v22.8a23.959,23.959,0,0,1-23.959,23.959h14.035a23.959,23.959,0,0,0,23.959-23.959V120Z" transform="translate(-162.455 -49.404)"/><path class="a" d="M324.035,184.344a43.457,43.457,0,0,1-12.608,1.849H304v7.018h7.427a50.476,50.476,0,0,0,14.643-2.149Z" transform="translate(-157.193 -85.526)"/><path class="i" d="M269.228,69.053H321.05a31.6,31.6,0,0,0-15.155-20.407A21.012,21.012,0,0,0,300.807,48H275.859a31.642,31.642,0,0,0-15.046,16.792A10.48,10.48,0,0,0,269.228,69.053Z" transform="translate(-132.948 -8.982)"/><path class="g" d="M256,75.088V57.544C256,45.917,263.855,40,273.544,40l-.617,2.223A88.157,88.157,0,0,1,256,75.088Z" transform="translate(-130.246 -4.491)"/><path class="g" d="M377.544,75.088V54.035C377.544,42.408,369.689,40,360,40l.618,2.222A88.157,88.157,0,0,0,377.544,75.088Z" transform="translate(-188.632 -4.491)"/><path class="j" d="M319.158,53.053H266.526A10.526,10.526,0,0,1,256,42.526V32h45.614a17.544,17.544,0,0,1,17.544,17.544Z" transform="translate(-130.246 0)"/><path class="l" d="M342.035,32H328a17.544,17.544,0,0,1,17.544,17.544v3.509h14.035V49.544A17.544,17.544,0,0,0,342.035,32Z" transform="translate(-170.667 0)"/><path class="f" d="M402.548,391.018l.54-7.018H368l.54,7.018Z" transform="translate(-193.123 -197.614)"/><path class="j" d="M360,352h42.105v14.035H360Z" transform="translate(-188.632 -179.649)"/><path class="l" d="M424,352h14.035v14.035H424Z" transform="translate(-224.561 -179.649)"/><path class="m" d="M385.493,287.9A21.023,21.023,0,0,0,376,305.488v10.526h28.07V309a7.017,7.017,0,0,1,7.017-7.017,6.987,6.987,0,0,0,6.14-3.684A20.905,20.905,0,0,0,409.5,294.3Z" transform="translate(-197.614 -143.663)"/><path class="d" d="M135.986,413.457H60.995a8.034,8.034,0,0,1-7.575-5.364c28.632-9.013,60.1-24.908,80.711-52.873l9.728,48.632a8.029,8.029,0,0,1-7.873,9.605Z" transform="translate(-16.516 -181.457)"/></g></svg>