<svg xmlns="http://www.w3.org/2000/svg" width="89.338" height="100" viewBox="0 0 89.338 100"><defs><style>.a{fill:#a7c7d3;}.b{fill:#dfe1e6;}.c{fill:#fff;}.d{fill:#f5f6f7;}.e{fill:#c2c4c8;}.f{fill:#a5a7aa;}.g{fill:#91f20d;}.h{fill:#c5c7e4;}.i{fill:#a9acd8;}.j{fill:#7dd505;}</style></defs><g transform="translate(6.473 0)"><path class="a" d="M105.707,285.445H93.754a3.535,3.535,0,0,0-3.535,3.535v14.3a3.536,3.536,0,0,0-3.535-3.536H74.729a3.535,3.535,0,0,0-3.535,3.536v9.429a3.536,3.536,0,0,0-3.535-3.535H55.7a3.535,3.535,0,0,0-3.535,3.535v8.778a3.536,3.536,0,0,0-3.536-3.535H36.68a3.535,3.535,0,0,0-3.535,3.535V328.2h76.1V288.98a3.536,3.536,0,0,0-3.536-3.535Zm0,0" transform="translate(-33.144 -229.694)"/><path class="b" d="M345.65,57.244a1.493,1.493,0,0,1-1.494-1.493V1.493a1.493,1.493,0,0,1,2.987,0V55.751A1.493,1.493,0,0,1,345.65,57.244Zm0,0" transform="translate(-283.412 0)"/><path class="c" d="M52.169,462.137H33.145v-6.712a3.536,3.536,0,0,1,3.535-3.535H48.634a3.535,3.535,0,0,1,3.535,3.535Zm0,0" transform="translate(-33.145 -363.63)"/></g><path class="d" d="M149.575,425.973H130.551V410.484a3.536,3.536,0,0,1,3.535-3.535H146.04a3.536,3.536,0,0,1,3.535,3.535Zm0,0" transform="translate(-105.053 -327.466)"/><path class="b" d="M246.981,387.125H227.957V362.207a3.535,3.535,0,0,1,3.535-3.535h11.954a3.535,3.535,0,0,1,3.535,3.535Zm0,0" transform="translate(-183.434 -288.618)"/><path class="e" d="M344.388,328.2H325.364V288.98a3.535,3.535,0,0,1,3.535-3.535h11.953a3.536,3.536,0,0,1,3.536,3.535Zm0,0" transform="translate(-261.816 -229.694)"/><path class="f" d="M87.845,499.7H1.494a1.493,1.493,0,0,1,0-2.986H87.845a1.493,1.493,0,0,1,0,2.986Zm0,0" transform="translate(0 -399.697)"/><path class="g" d="M351.8,31.006H370.94a.643.643,0,0,0,.425-1.125L366.395,25.5a.642.642,0,0,1,0-.965l4.971-4.377a.643.643,0,0,0-.425-1.126H351.8Zm0,0" transform="translate(-283.093 -15.317)"/><path class="h" d="M244.855,109.012l-20.729,11.259c-1.849,1-2.355,2.77-3,5.045L217,139.894l5.444,1.87,4.658-6.01,3.921-11.854,10.432-6.339a7.635,7.635,0,0,0,3.4-8.549Zm0,0" transform="translate(-174.62 -87.721)"/><path class="i" d="M244.855,109.012l-2.392,1.3a7.631,7.631,0,0,1-3.527,5.061l-9.505,5.775a2.951,2.951,0,0,0-1.268,1.593l-1.357,4.1a15.385,15.385,0,0,1-8.772,9.4L217,139.894l10.1-4.14,3.921-11.854,10.432-6.339a7.635,7.635,0,0,0,3.4-8.549Zm0,0" transform="translate(-174.62 -87.721)"/><path class="j" d="M227.106,245.93l5.969,7.056c.99,1.31,1.85,2.231,1.672,3.672l-1.4,11.286h-3.643l-.952-9.7a1.62,1.62,0,0,0-.971-1.33L217,250.07Zm0,0" transform="translate(-174.621 -197.897)"/><path class="g" d="M185.209,250.07l-.582,10.7a4.709,4.709,0,0,1-.261,2.147l-6.874,14.465h3.864l10.336-13.731a5.6,5.6,0,0,0,.878-2.538l2.741-15.18Zm0,0" transform="translate(-142.826 -197.897)"/><path class="c" d="M234.894,113.739l1.7,3.31a3.164,3.164,0,0,1-1.374,4.259l-1.31.671a3.164,3.164,0,0,1-4.259-1.374l-1.7-3.31a3.164,3.164,0,0,1,1.374-4.259l1.31-.671A3.164,3.164,0,0,1,234.894,113.739Zm0,0" transform="translate(-183.149 -90.138)"/></svg>