<svg xmlns="http://www.w3.org/2000/svg" xmlns:xlink="http://www.w3.org/1999/xlink" width="477.492" height="593" viewBox="0 0 477.492 593"><defs><style>.a{fill:#e8e9f5;}.b{fill:#fff;}.c{fill:#c5c7e4;}.d{fill:#6e73bd;}.e{fill:#a9acd8;}.f{fill:#00044e;}.g{fill:#000766;}.h{fill:url(#a);}.i{fill:#000333;opacity:0.5;}.j{fill:#fdc8a2;}.k{fill:#525559;}.l{fill:#f5f6f7;}.m{fill:#242caa;}.n{fill:#fcb079;}.o{fill:url(#b);}.p{fill:#70b2dd;}</style><linearGradient id="a" x1="0.514" y1="0.953" x2="0.485" y2="-0.024" gradientUnits="objectBoundingBox"><stop offset="0" stop-color="#000766"/><stop offset="1" stop-color="#010a8b"/></linearGradient><linearGradient id="b" y1="0.499" x2="1" y2="0.499" gradientUnits="objectBoundingBox"><stop offset="0" stop-color="#743b20"/><stop offset="1" stop-color="#7a432a"/></linearGradient></defs><g transform="translate(-117.674 -48.406)"><g transform="translate(117.674 48.406)"><path class="a" d="M585.426,379.477c-.4.82-.82,1.613-1.243,2.407-20.523,39.221-66.937,57.337-113.589,45.224-17.3-4.5-32.239-13.223-49.826-20.179-1.507-.582-3.041-1.137-4.6-1.693-24.913-8.939-55.75-13.223-105.787,4.073C232.706,436.02,166.96,445.515,133.9,395.636c-.423-.608-.82-1.217-1.19-1.878a112.031,112.031,0,0,1-11.451-24.781c-9.124-27.478-.185-58.95,19.465-89.178.635-.952,1.269-1.931,1.931-2.883a282.424,282.424,0,0,1,54.9-58.87c2.327-1.931,4.575-3.914,6.744-6.03a26.175,26.175,0,0,0,1.984-1.878,178.384,178.384,0,0,0,29.938-40.464c.4-.661.767-1.322,1.137-2.01,15.022-27.187,25.31-55.829,39.168-76.484,1.137-1.666,2.3-3.306,3.517-4.893.529-.688,1.058-1.375,1.613-2.036a93.725,93.725,0,0,1,14.334-14.44c.608-.5,1.243-1,1.851-1.455A96.822,96.822,0,0,1,347.22,49.052L350,48.787c28.589-2.327,60.828,5.977,92.7,25.31.846.476,1.666,1,2.512,1.534a265.237,265.237,0,0,1,60.828,53.422l1.8,2.116a373.244,373.244,0,0,1,47.6,73.892c.344.688.688,1.375,1,2.063,4.866,9.944,9.468,20.311,13.832,31.207.265.688.529,1.375.82,2.063,3.279,8.41,6.453,17.085,9.415,26.076.238.688.45,1.4.688,2.089q4.866,14.916,9.071,30.837C598.676,331.053,595.74,358.214,585.426,379.477Z" transform="translate(-117.674 -48.406)"/><path class="b" d="M438.537,268.355a212.845,212.845,0,0,1-65.747,11.187,131.255,131.255,0,0,1-59.849-13.223c-34.064-17.4-56.279-51.174-66.117-100.5-12.377-62.308-28.4-97.324-42.315-117.027l2.777-.264c13.858,20.232,29.488,55.538,41.68,116.868,9.627,48.583,31.472,81.985,64.9,98.911,37.607,19.2,85.132,14.652,123.9,1.9A18.66,18.66,0,0,0,438.537,268.355Z" transform="translate(25.142 -48.201)"/><path class="b" d="M368.983,224.368a172.064,172.064,0,0,1-42.315,6.083c-16.714,0-30.572-3.65-41.759-10.843-23.088-14.916-35.333-45.224-37.449-92.564a586.943,586.943,0,0,0-6.85-68.894c.846.476,1.666,1,2.512,1.534a593.481,593.481,0,0,1,6.453,67.175c2.089,46.652,14.017,76.378,36.47,90.871,18.909,12.245,45.938,13.779,81.985,4.575C368.427,222.992,368.586,223.68,368.983,224.368Z" transform="translate(84.515 -32.38)"/><path class="b" d="M319.882,156.9a97.854,97.854,0,0,1-22.374,2.988c-12.483,0-21.766-3.544-27.769-10.579-13.223-15.63-8.251-45.25-.291-70.375l1.8,2.116c-7.537,24.3-12.086,52.365.185,66.857,8.542,10.076,24.49,12.456,47.445,7.035C319.221,155.53,319.565,156.217,319.882,156.9Z" transform="translate(118.963 1.813)"/><path class="b" d="M571.026,242.562c-.4.82-.82,1.613-1.243,2.407a233.285,233.285,0,0,1-29.858,1.878c-46.414,0-109.49-13.012-185.841-60.034-98.752-60.827-175.236-58.342-221.994-45.568l-5.66,1.64c.635-.952,1.269-1.931,1.931-2.883l3.121-.9c47.207-12.88,124.3-15.392,223.739,45.779C450.006,243.25,524.057,248.936,571.026,242.562Z" transform="translate(-103.274 88.509)"/><path class="b" d="M411.352,223.126c-1.508-.582-3.041-1.137-4.6-1.693-29.091-31.022-72.6-60.669-131.414-58.923A279.727,279.727,0,0,0,124.59,211.833c-.423-.608-.82-1.217-1.19-1.878a281.79,281.79,0,0,1,151.857-49.667C336.931,158.411,381.89,190.57,411.352,223.126Z" transform="translate(-108.258 135.476)"/><path class="b" d="M287.332,172.871c-2.116,23.141-13.223,38.268-32.239,43.743a80.452,80.452,0,0,1-22.347,2.856c-24.939,0-54.454-8.648-82.276-19.862a26.186,26.186,0,0,0,1.984-1.878c36.153,14.493,74.9,24.569,102.031,16.741,22.771-6.585,29.091-26.447,30.652-41.786,3.227-35.6-16.926-85.635-42.976-115.281.608-.5,1.243-1,1.851-1.455C270.644,85.914,290.691,136.084,287.332,172.871Z" transform="translate(-63.736 -35.998)"/><path class="b" d="M222.891,166.55a19.808,19.808,0,0,1-9.071,1.9c-13.779,0-33.243-9.759-51.28-21.157.4-.661.767-1.322,1.137-2.01,21.977,13.937,45.991,25.442,58.183,19.227,19.544-9.918-3.385-71.618-15.524-100.5.529-.688,1.058-1.375,1.613-2.036C220.194,90.913,244.551,155.549,222.891,166.55Z" transform="translate(-43.885 -26.08)"/><path class="a" d="M330.057,247.12c-102.164,0-185.127,10.288-185.127,22.982,0,4.76,11.584,9.177,31.419,12.827-4.02,2.142-6.215,4.443-6.215,6.823,0,10.87,44.959,19.65,100.1,19.65,50.434,0,92.114-7.3,99.069-16.82,83.254-2.248,145.616-11.451,145.616-22.48C515.052,257.381,432.221,247.12,330.057,247.12Z" transform="translate(-72.848 278.414)"/><ellipse class="a" cx="23.114" cy="5.924" rx="23.114" ry="5.924" transform="translate(309.971 581.152)"/><path class="c" d="M395.2,264.959c0,7.934-50.963,14.519-113.721,14.519S167.76,272.973,167.76,264.959s50.963-14.519,113.721-14.519S395.2,256.946,395.2,264.959Z" transform="translate(-35.3 283.875)"/><path class="d" d="M244.027,260.574s-7.617,11.5-12.351,20.338a12.351,12.351,0,0,1-10.923,6.506H191.293s-1.481-11.451,7.934-15.868l.608-.238a17.931,17.931,0,0,1,7.246-1.56s10.737-14.2,4.311-22.956l24.939-4.946a26.6,26.6,0,0,1,7.7,18.724Z" transform="translate(3.264 269.747)"/><path class="e" d="M223.556,269.965H190.894s-.555-11.451,8.886-15.868l.608-.238C203.615,252.457,219.086,247.723,223.556,269.965Z" transform="translate(2.738 287.2)"/><path class="d" d="M213.69,267.619s8.648-9.918,8.807-21.739h23.062s7.8,23.088,4.046,34.883H221.941Z" transform="translate(40.24 276.375)"/><path class="e" d="M245.967,267.71s-4.893-14.308-20.232-13.885S209.55,267.71,209.55,267.71Z" transform="translate(33.431 289.428)"/><path class="f" d="M209.607,153.41s-30.652,99.175-27.319,125.49S221.8,396.429,221.8,396.429l35.386-11.055s-11.875-67.175-21.528-102.4c0,0,28.562-43.743,33.746-64.5s-4.126-56.728-4.126-56.728Z" transform="translate(-11.823 124.292)"/><path class="g" d="M206.94,165.927,227.7,405.058h33.006s14.81-103.142,7.035-146.436c0,0,17.8-53.766,11.875-107.532Z" transform="translate(29.138 120.476)"/><path class="h" d="M314.378,207.113l3.755,36.708a45.539,45.539,0,0,1-9.045,8.516c-8.913,6.612-24.781,14.81-49.059,15.128-41.151.582-52.893-17.508-52.893-17.508l2.169-21.157,1.455-14.413L207.8,209.1,183.52,165.01a137.972,137.972,0,0,1,14.017-46.731C206,102.411,224.46,97.518,234.218,95.984a55.539,55.539,0,0,1,6.294-.688,66.117,66.117,0,0,0,26.447,0,49.111,49.111,0,0,1,21.157,1.322c12.033,3.121,24.648,9.97,31.895,20.549,11.927,17.534,12.668,77.3,12.668,77.3L313.321,197.8Z" transform="translate(-9.38 27.745)"/><path class="i" d="M303.019,216.384a45.539,45.539,0,0,1-9.045,8.516,142.072,142.072,0,0,1-99.757-23.564l1.455-14.414-2.962-5.289,6.585-26.05,2.777-44.192,13.038,50.619s37.872-4.549,44.695-11.98,11.213-38.639,11.213-38.639l5.289,45.885,22.533,21.686.423.82Z" transform="translate(5.735 55.183)"/><path class="j" d="M203.03,127.285a7.538,7.538,0,0,0,0-6.585,3.755,3.755,0,0,0-4.919-.9s-3.623-7.141-13.62-3.438-18.83,13.911,2.116,27.161S203.03,127.285,203.03,127.285Z" transform="translate(-25.346 61.609)"/><path class="k" d="M188.53,134.985l-8.384-26.1a2.089,2.089,0,0,0-2.512-1.349h0a2.063,2.063,0,0,0-1.375,2.645l9.494,25.31a1.878,1.878,0,0,0,2.777-.5Z" transform="translate(-21.504 48.725)"/><path class="a" d="M244.176,186.215H198.317a3.279,3.279,0,0,1-3.174-2.38l-18.513-60.008a3.359,3.359,0,0,1,3.2-4.337h43.875a3.306,3.306,0,0,1,3.147,2.248L247.4,181.772a3.385,3.385,0,0,1-3.227,4.443Z" transform="translate(-20.95 68.505)"/><path class="l" d="M238.437,186.215h-40.12a3.279,3.279,0,0,1-3.174-2.38l-18.513-60.008a3.359,3.359,0,0,1,3.2-4.337h33.852a9.256,9.256,0,0,1,8.807,6.294l19.121,55.882a3.359,3.359,0,0,1-3.174,4.549Z" transform="translate(-20.95 68.505)"/><path class="a" d="M196.222,136.47c.688,3.782-.793,7.193-3.279,7.643s-5.051-2.248-5.712-6.03.767-7.194,3.253-7.643S195.535,132.688,196.222,136.47Z" transform="translate(-3.543 86.434)"/><path class="j" d="M232.707,137.129s-10.208-11.5-18.169-11.689l3.517,9.838a45.937,45.937,0,0,1-19.465,6.109c-10.579.555-15.868,3.147-7.775,6.294S201,158.631,208.773,162.333s25.786-5.924,25.786-5.924,28.721,8.7,53.74,9.442,42.844-7.035,38.93-22.057-29.832-17.613-48-12.8S232.707,137.129,232.707,137.129Z" transform="translate(-3.848 78.291)"/><path class="m" d="M258.7,96.572c-3.861,10.579-18.513,36.391-43.531,31.948-17.878-3.2-14.625-24.622-10.42-32.582a55.533,55.533,0,0,1,6.294-.688,66.117,66.117,0,0,0,26.447,0,49.111,49.111,0,0,1,21.21,1.322Z" transform="translate(20.112 27.659)"/><path class="j" d="M241.762,110.1s-3.623,26.288-23.8,27.108c-10.9.476-13.567-5.289-13.7-10.9a26.445,26.445,0,0,1,1.481-8.992,7.934,7.934,0,0,0,3.65-2.856,9.732,9.732,0,0,0,1.851-4.575,14.415,14.415,0,0,0,.132-3.914c-.291-3.2,2.169-6.717,5.474-9.918A81.218,81.218,0,0,1,232.479,85h.714a131.556,131.556,0,0,0,4.76,20.867,42.71,42.71,0,0,0,1.693,4.231Z" transform="translate(24.73 11.78)"/><path class="n" d="M204.3,126.31a26.445,26.445,0,0,1,1.481-8.992,7.934,7.934,0,0,0,3.65-2.856,9.732,9.732,0,0,0,1.851-4.575,14.414,14.414,0,0,0,.132-3.914c-.291-3.2,2.169-6.717,5.475-9.918A81.217,81.217,0,0,1,232.414,85h.714C235.085,119.751,212.579,125.411,204.3,126.31Z" transform="translate(24.796 11.78)"/><path class="o" d="M266.024,106.55s5.686-6.532,2.645-21.157-14.44-12.086-14.44-12.086,2.089-9.309-12.509-10.42S214,71.27,205.7,66.642,192.343,64.553,194.988,76.8c0,0-7.352-7.246-8.066,4.152s9.732,17.376,9.732,17.376-.4,16.291,18.513,20.443l44.959-3.6Z" transform="translate(-3.843 -24.739)"/><path class="j" d="M195.2,83.327s10.367,45.806,25.865,47.816c13.541,1.772,24.278-16.582,26.129-22.982a68.751,68.751,0,0,0,1.719-8.7s7.326,0,6.77-9.045-7.934-13.488-9.732-.291c0,0-7.246-1.111-7.643-15.154,0,0-9.732,7.379-19.2,6.691s-6.241-6.612-6.241-6.612S208.556,81.661,195.2,83.327Z" transform="translate(9.83 -4.716)"/><path class="c" d="M269.557,85.849A16.609,16.609,0,1,0,241.18,97.617c2.327,2.327,4.02,1.481,4.893,4.655l1.322,4.946h10.9l1.269-4.681c.873-3.253,2.645-2.433,5.025-4.813A16.477,16.477,0,0,0,269.557,85.849Z" transform="translate(77.492 -14.061)"/><path class="b" d="M243,75.718a2.936,2.936,0,1,0,0,5.845,2.83,2.83,0,0,0,1.666-.529V99.547h1.243V78.654A2.936,2.936,0,0,0,243,75.718Zm0,4.6a1.82,1.82,0,1,1,1.666-1.666A1.666,1.666,0,0,1,243,80.32Z" transform="translate(83.157 -3.507)"/><path class="b" d="M246.168,76.67a2.936,2.936,0,0,0-2.909,2.936L243.1,97.88h1.269V82.012a2.83,2.83,0,0,0,1.666.529,2.936,2.936,0,1,0,0-5.845Zm0,4.6a1.666,1.666,0,1,1,1.666-1.666,1.666,1.666,0,0,1-1.666,1.666Z" transform="translate(88.61 -1.92)"/><path class="d" d="M246.11,90.358h0a5.66,5.66,0,0,1-5.66-5.686V83.35H251.8v1.322a5.686,5.686,0,0,1-5.686,5.686Z" transform="translate(84.251 9.066)"/><path class="e" d="M252.135,84.863H240.683a.45.45,0,0,1-.423-.45h0a.423.423,0,0,1,.423-.423h11.451a.423.423,0,0,1,.423.423h0a.45.45,0,0,1-.423.45Z" transform="translate(83.939 10.119)"/><path class="e" d="M252.165,85.543H240.74a.476.476,0,0,1-.45-.45h0a.45.45,0,0,1,.45-.423h11.425a.45.45,0,0,1,.45.423h0a.476.476,0,0,1-.45.45Z" transform="translate(83.988 11.237)"/><path class="c" d="M238.289,76.224h-4.364A.846.846,0,0,1,233,75.51h0a.82.82,0,0,1,.846-.82h4.443a.82.82,0,0,1,.82.82h0a.82.82,0,0,1-.82.714Z" transform="translate(71.999 -5.177)"/><path class="c" d="M238.247,74.564l-3.967-2.01a.82.82,0,0,1-.344-1.137h0a.82.82,0,0,1,1.111-.37l3.861,2.036a.846.846,0,0,1,.37,1.137h0a.846.846,0,0,1-1.031.344Z" transform="translate(73.363 -11.318)"/><path class="c" d="M238.3,77.616l-3.861,2.01a.846.846,0,0,0-.37,1.137h0a.846.846,0,0,0,1.137.344l3.861-2.01a.82.82,0,0,0,.344-1.137h0a.793.793,0,0,0-1.111-.344Z" transform="translate(73.603 -0.539)"/><path class="c" d="M239.35,72.69,236.256,69.6a.873.873,0,0,1,0-1.19h0a.873.873,0,0,1,1.19,0L240.54,71.5a.873.873,0,0,1,0,1.19h0A.873.873,0,0,1,239.35,72.69Z" transform="translate(76.968 -15.898)"/><path class="c" d="M240.272,71.564l-1.508-4.073a.846.846,0,0,1,.476-1.084h0a.82.82,0,0,1,1.084.5l1.507,4.1a.82.82,0,0,1-.5,1.058h0a.82.82,0,0,1-1.058-.5Z" transform="translate(81.389 -18.897)"/><path class="c" d="M250.754,76.113h4.47a.846.846,0,0,0,.846-.846h0a.846.846,0,0,0-.846-.846h-4.337a.846.846,0,0,0-.846.846h0a.846.846,0,0,0,.714.846Z" transform="translate(100.024 -5.621)"/><path class="c" d="M250.563,74.355l3.861-2.01a.846.846,0,0,0,.37-1.137h0a.846.846,0,0,0-1.137-.37L249.8,72.874a.82.82,0,0,0-.37,1.111h0a.846.846,0,0,0,1.137.37Z" transform="translate(98.866 -11.664)"/><path class="c" d="M250.436,77.386l3.888,2.036a.82.82,0,0,1,.344,1.111h0a.846.846,0,0,1-1.137.37l-3.861-2.01a.873.873,0,0,1-.344-1.137h0a.82.82,0,0,1,1.111-.37Z" transform="translate(98.702 -0.891)"/><path class="c" d="M248.891,72.454l3.094-3.068a.873.873,0,0,0,0-1.19h0a.873.873,0,0,0-1.19,0L247.7,71.29a.82.82,0,0,0,0,1.164h0a.82.82,0,0,0,1.19,0Z" transform="translate(95.778 -16.243)"/><path class="c" d="M247.024,71.354l1.481-4.073a.82.82,0,0,0-.476-1.084h0a.82.82,0,0,0-1.084.5l-1.507,4.073a.82.82,0,0,0,.5,1.084h0A.846.846,0,0,0,247.024,71.354Z" transform="translate(92.356 -19.243)"/><path class="c" d="M242.3,70.837V66.526a.846.846,0,0,1,.846-.846h0a.846.846,0,0,1,.846.846V70.89a.846.846,0,0,1-.846.82h0a.82.82,0,0,1-.846-.873Z" transform="translate(87.293 -19.995)"/><rect class="c" width="43.478" height="43.478" rx="2.6" transform="translate(405.576 154.222)"/><path class="d" d="M299.017,109.33l.185.185c-.132,1.269-.185,3.438-.185,6.559l-.185.159h-.979l-.159-.185-.238-1.9q-.159-1.56-.238-1.9a1.164,1.164,0,0,0-.317-.5,3.438,3.438,0,0,0-1.349-.238,25.242,25.242,0,0,0-2.645,0h-3.94c0,3.121-.159,4.946-.159,5.289v16.238a28.758,28.758,0,0,0,.132,3.041,1.8,1.8,0,0,0,.291.926,1.719,1.719,0,0,0,.74.37,16.792,16.792,0,0,0,2.8.238h.159v1.031l-.159.159-5.951-.159-5.951.159-.159-.159V137.6h.159a21.714,21.714,0,0,0,2.645-.212,1.745,1.745,0,0,0,.846-.317,1.481,1.481,0,0,0,.37-.846,15.859,15.859,0,0,0,.159-2.883V116.788c0-.212,0-2.036-.159-5.289h-6.427c-.926,0-1.454.185-1.613.423a8.653,8.653,0,0,0-.4,2.248l-.212,1.9-.185.185h-.952l-.185-.159a53.274,53.274,0,0,0-.185-6.559l.185-.185c2.433,0,6.453.185,12.086.185S296.689,109.462,299.017,109.33Z" transform="translate(140.384 51.795)"/><path class="p" d="M139.273,108.037a1.4,1.4,0,0,1-1.164-.582,1.428,1.428,0,0,1,.291-2.01,44.963,44.963,0,0,1,4.734-3.227,1.434,1.434,0,0,1,1.428,2.486,52.956,52.956,0,0,0-4.443,3.041A1.269,1.269,0,0,1,139.273,108.037Z" transform="translate(-84.54 39.785)"/><path class="e" d="M173.653,250.53h-3.967a1.455,1.455,0,0,1,.159-2.883h3.914a54.1,54.1,0,0,0,6.982-.423,1.481,1.481,0,0,1,1.613,1.27,1.455,1.455,0,0,1-1.243,1.613,52.335,52.335,0,0,1-7.458.423Zm-14.942-1.613h-.317a54.558,54.558,0,0,1-10.87-3.57,1.455,1.455,0,0,1,1.19-2.645,50.751,50.751,0,0,0,10.314,3.412,1.428,1.428,0,0,1,1.084,1.719,1.455,1.455,0,0,1-1.4,1.031Zm32.979-1.613a1.455,1.455,0,0,1-.555-2.645,33.666,33.666,0,0,0,9.124-5.527,1.455,1.455,0,0,1,2.036.159,1.428,1.428,0,0,1-.159,2.036,36.257,36.257,0,0,1-9.891,6,1.376,1.376,0,0,1-.555-.027ZM138.8,239.555a1.4,1.4,0,0,1-.926-.344,42.314,42.314,0,0,1-7.8-8.463,1.455,1.455,0,0,1,.37-2.01,1.428,1.428,0,0,1,2.01.344,38.321,38.321,0,0,0,7.273,7.934,1.437,1.437,0,0,1-1.058,2.539Zm69.793-6.427a1.375,1.375,0,0,1-.767-.238,1.428,1.428,0,0,1-.45-1.983,50.457,50.457,0,0,0,4.76-9.732,1.4,1.4,0,0,1,1.851-.873,1.428,1.428,0,0,1,.846,1.851,51.2,51.2,0,0,1-5.025,10.314,1.428,1.428,0,0,1-1.349.661ZM126.1,221.492a1.455,1.455,0,0,1-1.349-.952,56.677,56.677,0,0,1-2.988-11.028,1.455,1.455,0,0,1,1.164-1.666,1.481,1.481,0,0,1,1.693,1.164,54.985,54.985,0,0,0,2.83,10.579,1.481,1.481,0,0,1-.846,1.878,1.137,1.137,0,0,1-.635.026Zm90.342-9.151h-.264a1.428,1.428,0,0,1-1.137-1.693,106.552,106.552,0,0,0,1.534-10.922,1.428,1.428,0,0,1,1.587-1.3,1.4,1.4,0,0,1,1.3,1.56,105.014,105.014,0,0,1-1.587,11.213,1.454,1.454,0,0,1-1.56,1.137Zm-94.309-12.747a1.428,1.428,0,0,1-1.455-1.4V196a67.4,67.4,0,0,1,.423-9.151,1.455,1.455,0,0,1,2.883.264c-.264,3.041-.423,6-.423,8.886v2.116a1.455,1.455,0,0,1-1.4,1.481Zm96.451-9.468h0a1.455,1.455,0,0,1-1.428-1.481c0-.846,0-1.693,0-2.645,0-2.645,0-5.607-.212-8.542a1.455,1.455,0,1,1,2.909,0c0,2.988.185,5.9.185,8.675v2.645a1.455,1.455,0,0,1-1.587,1.349Zm-94.653-12.668h-.264a1.455,1.455,0,0,1-1.164-1.693c.661-3.6,1.507-7.3,2.512-11a1.455,1.455,0,1,1,2.8.74c-.979,3.65-1.825,7.273-2.46,10.79a1.481,1.481,0,0,1-1.428,1.164Zm93.648-9.6a1.455,1.455,0,0,1-1.455-1.322c0-1.375-.238-2.645-.37-4.126a56.078,56.078,0,0,1-.264-5.607v-1.587a1.428,1.428,0,0,1,1.507-1.4,1.455,1.455,0,0,1,1.4,1.481q0,.754,0,1.507a51.247,51.247,0,0,0,.264,5.289c.132,1.349.265,2.645.37,4.152a1.455,1.455,0,0,1-1.322,1.56ZM129.7,155.851a1.509,1.509,0,0,1-.476,0,1.4,1.4,0,0,1-.9-1.825c.37-1.058.74-2.142,1.137-3.2.9-2.46,1.878-4.946,2.936-7.326a1.455,1.455,0,0,1,1.9-.767,1.481,1.481,0,0,1,.741,1.9c-1.031,2.354-1.983,4.76-2.883,7.167l-1.111,3.147a1.428,1.428,0,0,1-1.349.82Zm88.623-10.208H218a1.428,1.428,0,0,1-1.084-1.719,54.746,54.746,0,0,1,3.676-10.87,1.461,1.461,0,1,1,2.645,1.243,50.245,50.245,0,0,0-3.465,10.261,1.454,1.454,0,0,1-1.455,1.005Zm-79.658-10.208a1.56,1.56,0,0,1-.688-.185,1.481,1.481,0,0,1-.582-1.983c1.851-3.279,3.835-6.532,5.951-9.6a1.456,1.456,0,0,1,2.407,1.64,102.98,102.98,0,0,0-5.818,9.389,1.507,1.507,0,0,1-1.269.661Zm89.258-9.732a1.534,1.534,0,0,1-.952-.37,1.455,1.455,0,0,1,0-2.036,24.7,24.7,0,0,1,9.494-6.9,1.455,1.455,0,0,1,1.058,2.645,22.03,22.03,0,0,0-8.41,6.136,1.375,1.375,0,0,1-1.19.45Zm29.594-1.666a1.613,1.613,0,0,1-.952-.344,24.093,24.093,0,0,0-9.1-5.131,1.428,1.428,0,1,1,.767-2.645,26.684,26.684,0,0,1,10.208,5.713,1.428,1.428,0,0,1,.159,2.036,1.455,1.455,0,0,1-1.084.291Zm-106.184-6.982a1.481,1.481,0,0,1-.926-.344,1.455,1.455,0,0,1-.185-2.036c2.46-2.909,5.078-5.686,7.749-8.278a1.428,1.428,0,0,1,2.036,0,1.455,1.455,0,0,1,0,2.036,103.693,103.693,0,0,0-7.537,7.934,1.481,1.481,0,0,1-1.137.608Z" transform="translate(-112.731 46.267)"/><path class="e" d="M179.273,122.346a1.481,1.481,0,0,1-1.243-.688c-1-1.613-2.01-3.147-3.041-4.549a1.455,1.455,0,0,1,2.354-1.693c1.058,1.455,2.116,3.041,3.147,4.708a1.428,1.428,0,0,1-.476,1.984,1.349,1.349,0,0,1-.741.238Z" transform="translate(-23.752 60.967)"/><path class="e" d="M178.715,96.184l-14.361,9.6a3.517,3.517,0,1,1-1.269-1.666l14.7-9.838L141.928,97.9l5.289,7.775-10,6.717,9.468,14.175,10.023-6.717,5.58,8.331Z" transform="translate(-85.528 27.043)"/><rect class="d" width="22.057" height="6.109" transform="matrix(0.556, 0.831, -0.831, 0.556, 52.879, 135.266)"/><path class="p" d="M207.841,146.879a1.455,1.455,0,0,1-1.4-1.084,1.428,1.428,0,0,1,1.032-1.745,47.6,47.6,0,0,1,5.66-1,1.481,1.481,0,0,1,1.613,1.269,1.455,1.455,0,0,1-1.243,1.613,47.608,47.608,0,0,0-5.289.9.9.9,0,0,1-.37.053Z" transform="translate(28.238 107.232)"/><path class="e" d="M319.681,285.8a52.715,52.715,0,0,1-6.8-.291,1.481,1.481,0,0,1-1.322-1.587,1.428,1.428,0,0,1,1.587-1.3,73.423,73.423,0,0,0,11.055.132,1.428,1.428,0,0,1,1.534,1.349,1.455,1.455,0,0,1-1.349,1.534C322.828,285.747,321.241,285.8,319.681,285.8Zm15.868-1.719a1.481,1.481,0,0,1-1.428-1.137,1.455,1.455,0,0,1,1.111-1.719,64.036,64.036,0,0,0,10.579-3.359,1.4,1.4,0,0,1,1.878.767,1.455,1.455,0,0,1-.767,1.9,63.293,63.293,0,0,1-10.975,3.491Zm-33.587-.423h-.344a72.446,72.446,0,0,1-10.923-3.623,1.454,1.454,0,0,1-.767-1.9,1.4,1.4,0,0,1,1.878-.767,69.811,69.811,0,0,0,10.579,3.491,1.455,1.455,0,0,1-.344,2.856Zm54.216-8.437a1.481,1.481,0,0,1-1.19-.608,1.455,1.455,0,0,1,.37-2.01,42.918,42.918,0,0,0,8.093-7.3,1.455,1.455,0,0,1,2.036-.132,1.428,1.428,0,0,1,.159,2.037A46.015,46.015,0,0,1,357,274.956a1.323,1.323,0,0,1-.9.264Zm-74.9-.4a1.534,1.534,0,0,1-.793-.238,64.579,64.579,0,0,1-9.071-7.141,1.481,1.481,0,0,1,0-2.063,1.428,1.428,0,0,1,2.036,0,57.432,57.432,0,0,0,8.648,6.823,1.481,1.481,0,0,1,.423,2.01,1.428,1.428,0,0,1-1.322.608Zm-16.609-15.207a1.428,1.428,0,0,1-1.031-.423,76.686,76.686,0,0,0-8.331-7.273,1.455,1.455,0,1,1,1.745-2.327,85.527,85.527,0,0,1,8.648,7.564,1.455,1.455,0,0,1-1.031,2.46Zm105.787-1.4a1.455,1.455,0,0,1-1.322-2.036,37.419,37.419,0,0,0,2.909-10.076v-.37a1.428,1.428,0,0,1,1.613-1.217,1.455,1.455,0,0,1,1.243,1.64v.37a40.888,40.888,0,0,1-3.121,10.843,1.455,1.455,0,0,1-1.269.846ZM246.556,246.1a1.534,1.534,0,0,1-.688-.159,71.559,71.559,0,0,0-10.1-4.47,1.455,1.455,0,1,1,.952-2.645,77.523,77.523,0,0,1,10.579,4.628,1.481,1.481,0,0,1,.582,1.957,1.428,1.428,0,0,1-1.269.688ZM225.4,238.645h-.264a72.57,72.57,0,0,0-11-1.217,1.454,1.454,0,0,1-1.4-1.481,1.481,1.481,0,0,1,1.507-1.4,78.632,78.632,0,0,1,11.425,1.243,1.428,1.428,0,0,1,1.164,1.693,1.455,1.455,0,0,1-1.455,1.164Zm148.763-2.512a1.481,1.481,0,0,1-1.455-1.4,77.168,77.168,0,0,0-1.19-11,1.439,1.439,0,1,1,2.83-.529,79.861,79.861,0,0,1,1.269,11.425,1.481,1.481,0,0,1-1.4,1.508ZM370.3,213.944a1.454,1.454,0,0,1-1.375-1.058c-.979-3.306-2.142-6.8-3.57-10.579a1.455,1.455,0,0,1,.846-1.851,1.481,1.481,0,0,1,1.878.846c1.428,3.888,2.645,7.405,3.623,10.817a1.454,1.454,0,0,1-.978,1.8Zm-7.749-21.157a1.455,1.455,0,0,1-1.349-.9l-2.856-6.8-1.534-3.6a1.455,1.455,0,1,1,2.645-1.137l1.534,3.623c.952,2.248,1.9,4.5,2.856,6.8a1.481,1.481,0,0,1-1.322,2.01Zm-8.675-20.893a1.481,1.481,0,0,1-1.349-.926c-1.534-3.993-2.645-7.537-3.676-10.79a1.448,1.448,0,1,1,2.777-.82c.926,3.2,2.089,6.638,3.623,10.579a1.481,1.481,0,0,1-.846,1.878,1.691,1.691,0,0,1-.555.026Zm-6-21.713a1.428,1.428,0,0,1-1.428-1.269,49.055,49.055,0,0,1-.4-6.136,41.148,41.148,0,0,1,.344-5.474,1.455,1.455,0,0,1,1.64-1.243,1.428,1.428,0,0,1,1.243,1.613,35.7,35.7,0,0,0-.344,5.1,49.03,49.03,0,0,0,.37,5.792,1.428,1.428,0,0,1-1.243,1.613ZM351.1,128.2a1.4,1.4,0,0,1-.635-.159,1.428,1.428,0,0,1-.635-1.931,35.73,35.73,0,0,1,6.9-9.441,1.454,1.454,0,0,1,2.036,0,1.4,1.4,0,0,1,0,2.036,33.851,33.851,0,0,0-6.374,8.7,1.428,1.428,0,0,1-1.428.741Zm15.445-16.132a1.508,1.508,0,0,1-1.217-.635,1.481,1.481,0,0,1,.4-2.01c2.3-1.56,4.681-3.041,6.955-4.443l2.645-1.64a1.455,1.455,0,0,1,1.983.45,1.481,1.481,0,0,1-.45,2.01l-2.645,1.64c-2.274,1.4-4.6,2.83-6.876,4.364a1.3,1.3,0,0,1-.82.212Zm18.8-12.668a1.455,1.455,0,0,1-.952-2.645,21.343,21.343,0,0,0,6.189-8.41,1.455,1.455,0,1,1,2.645,1.031,24.118,24.118,0,0,1-6.982,9.547,1.322,1.322,0,0,1-.9.476Z" transform="translate(38.661 15.255)"/><path class="e" d="M282.485,89.3a1.428,1.428,0,0,1-1.4-1.217,41.221,41.221,0,0,0-1.3-5.289,1.428,1.428,0,0,1,.926-1.825,1.455,1.455,0,0,1,1.825.926,38.646,38.646,0,0,1,1.375,5.633,1.428,1.428,0,0,1-1.19,1.64Z" transform="translate(148.823 5.043)"/><path class="e" d="M288.212,94.643l.291,7.67a3.068,3.068,0,0,1-2.116,3.041l-11.4,3.782a1.216,1.216,0,0,1-1.587-1.243l2.459-39.67a1.217,1.217,0,0,1,2.063-.767l28.721,29.091a1.217,1.217,0,0,1-.45,2.01l-8.516,2.936a3.068,3.068,0,0,1-3.147-.688Z" transform="translate(138.442 -17.645)"/><path class="d" d="M189.711,110.375h0a3.65,3.65,0,0,1-5-1.243L175.43,93.9l6.241-3.808,9.283,15.26a3.676,3.676,0,0,1-1.243,5.025Z" transform="translate(-22.685 20.151)"/><path class="e" d="M197.643,88.478a15.868,15.868,0,1,0-5.289,21.819A15.868,15.868,0,0,0,197.643,88.478Zm-7.934,17.508a5.157,5.157,0,1,0-.026,0Z" transform="translate(-34.531 4.996)"/><path class="c" d="M197.679,67.025v39.194a4.6,4.6,0,0,1-4.6,4.6H141.665a4.6,4.6,0,0,1-4.575-4.6V67.025a4.575,4.575,0,0,1,4.575-4.575h51.412a4.575,4.575,0,0,1,4.6,4.575Z" transform="translate(-85.742 -25.307)"/><path class="e" d="M197.679,85.64V97.091a4.6,4.6,0,0,1-4.6,4.6H141.665a4.6,4.6,0,0,1-4.575-4.6V86.513S150.049,68,158.062,68c9.336,0,15.577,21.157,20.285,21.157s5.9-8.727,12.007-8.727A9.785,9.785,0,0,1,197.679,85.64Z" transform="translate(-85.742 -16.18)"/><path class="d" d="M164.4,72.089a6.162,6.162,0,1,1-1.8-4.374,6.189,6.189,0,0,1,1.8,4.374Z" transform="translate(-61.187 -19.633)"/></g></g></svg>