<svg xmlns="http://www.w3.org/2000/svg" width="41" height="41" viewBox="0 0 41 41"><defs><style>.a{fill:#fff;}</style></defs><circle class="a" cx="3.658" cy="3.658" r="3.658" transform="translate(16.842 16.842)"/><path class="a" d="M37.763,0H3.237A3.237,3.237,0,0,0,0,3.237V37.763A3.237,3.237,0,0,0,3.237,41H37.763A3.237,3.237,0,0,0,41,37.763V3.237A3.237,3.237,0,0,0,37.763,0ZM31.435,21.579c0,.647-.013,1.3-.024,1.948s-.027,1.349-.049,2.031a5.642,5.642,0,0,1-5.57,5.638q-1.211.043-2.428.065-4.046.084-8.119-.067a5.664,5.664,0,0,1-3.507-1.322,5.516,5.516,0,0,1-.615-.615,6.3,6.3,0,0,1-1.446-3.714c-.019-.27-.076-.539-.116-.809V16.279c.073-.513.127-1.028.218-1.538A5.634,5.634,0,0,1,15.256,9.8c3.507-.119,7.029-.127,10.539,0a5.77,5.77,0,0,1,3.749,1.486l.154.151.081.081a5.867,5.867,0,0,1,1.586,3.919c.024.793.043,1.583.057,2.376.016,1.254.024,2.509.013,3.763Zm-2-5.778a3.9,3.9,0,0,0-4.119-4.1q-4.788-.1-9.576,0a3.871,3.871,0,0,0-4.111,4.046q-.129,4.755,0,9.514A3.9,3.9,0,0,0,15.747,29.3c1.583.059,3.169,0,4.755,0h.925c1.3,0,2.595.035,3.892-.013a3.916,3.916,0,0,0,4.119-4.105q.046-1.8.051-3.59V19.623q0-1.888-.051-3.8ZM20.5,26.075a5.579,5.579,0,1,1,3.9-9.549l.043.043.051.051A5.575,5.575,0,0,1,20.5,26.075ZM26.4,16a1.32,1.32,0,1,1,.842-2.349l.03.027a.823.823,0,0,1,.119.119l.03.032A1.327,1.327,0,0,1,26.4,15.982Z"/></svg>