<svg xmlns="http://www.w3.org/2000/svg" width="41" height="41" viewBox="0 0 41 41"><defs><style>.a{fill:#fff;}</style></defs><path class="a" d="M65.46,63.74l5.686,3.315-5.686,3.3Z" transform="translate(-47.803 -46.547)"/><path class="a" d="M37.763,0H3.237A3.237,3.237,0,0,0,0,3.237V37.763A3.237,3.237,0,0,0,3.237,41H37.763A3.237,3.237,0,0,0,41,37.763V3.237A3.237,3.237,0,0,0,37.763,0ZM31.289,24.128a4.081,4.081,0,0,1-4.081,4.084H13.792a4.081,4.081,0,0,1-4.081-4.084V16.872a4.081,4.081,0,0,1,4.081-4.084H27.208a4.081,4.081,0,0,1,4.081,4.084Z"/></svg>