<svg xmlns="http://www.w3.org/2000/svg" width="41" height="41" viewBox="0 0 41 41"><defs><style>.a{fill:#fff;}</style></defs><path class="a" d="M37.763,0H3.237A3.237,3.237,0,0,0,0,3.237V37.763A3.237,3.237,0,0,0,3.237,41H37.763A3.237,3.237,0,0,0,41,37.763V3.237A3.237,3.237,0,0,0,37.763,0ZM26.332,13.341c0,.386-.162.539-.539.539-.726,0-1.451,0-2.174.03s-1.117.359-1.117,1.114c-.016.809,0,1.6,0,2.428h3.1c.442,0,.593.151.593.6V21.3c0,.44-.14.577-.585.58h-3.14v8.777c0,.469-.146.618-.61.618H18.488c-.407,0-.566-.159-.566-.566V21.895H15.24c-.421,0-.572-.154-.572-.577V18.045c0-.421.159-.58.575-.58h2.678v-2.36a5.9,5.9,0,0,1,.736-3.037,4.453,4.453,0,0,1,2.409-2,5.91,5.91,0,0,1,2.063-.356h2.652c.38,0,.539.167.539.539.013,1.038.013,2.066.011,3.091Z"/></svg>