<svg xmlns="http://www.w3.org/2000/svg" width="149.9" height="179.697" viewBox="0 0 149.9 179.697"><defs><style>.a{fill:#010a8b;}.b{fill:#000766;}.c{fill:#fdc8a2;}.d{fill:#fdb683;}.e{fill:#7a432a;}.f{fill:#743b20;}.g{fill:#91f20d;}.h{fill:#7dd505;}.i{fill:#000437;}.j{fill:#fff;}</style></defs><g transform="translate(-42.449 -0.001)"><path class="a" d="M122.191,377.138h6.368c11.44-14.67,54.181-5.967,40.259,43.145H81.932C68.009,371.171,110.751,362.467,122.191,377.138Z" transform="translate(-23.835 -240.584)"/><path class="b" d="M245.219,371.535c13.876,3.555,26.825,18.474,18.242,48.747h13.124C287.959,380.163,261.519,367.009,245.219,371.535Z" transform="translate(-131.603 -240.585)"/><path class="c" d="M186.541,366.1h0a13.124,13.124,0,0,0,13.124-13.124V336.732H173.417v16.244A13.124,13.124,0,0,0,186.541,366.1Z" transform="translate(-85.002 -218.548)"/><path class="d" d="M173.417,349.682a83.907,83.907,0,0,0,26.248,1.494V336.733H173.417Z" transform="translate(-85.002 -218.549)"/><g transform="translate(45.346 69.112)"><path class="c" d="M61.79,219.094H76.456V196.915H61.79A11.089,11.089,0,0,0,50.7,208h0A11.089,11.089,0,0,0,61.79,219.094Z" transform="translate(-50.701 -196.915)"/><path class="c" d="M312.2,219.094H297.538V196.915H312.2A11.089,11.089,0,0,1,323.293,208h0A11.089,11.089,0,0,1,312.2,219.094Z" transform="translate(-210.905 -196.915)"/></g><path class="e" d="M62.071,86.9c-2.735-11.839-6.776-27.618-8.6-35.315C41.759,41.412,39.336,19.915,46.418,4.635a3.717,3.717,0,0,1,5.719-1.329c4.655,3.782,13.838,7.369,31,1.073,33.43-12.262,61.581,4.247,63.2,12.7,1.807,0,10.586,1.244,10.586,9.877,0,7.343-12.068,46.452-17.271,59.942H62.071Z" transform="translate(0 0)"/><path class="f" d="M259.567,17.078C258.3,10.436,240.639-1.182,216.91.1c17.909,1.089,30.688,11.03,31.705,16.98,1.617,0,9.47,1.244,9.47,9.877,0,7.343-10.8,46.452-15.45,59.942h10.247c5.2-13.49,17.271-52.6,17.271-59.942C270.154,18.322,261.375,17.078,259.567,17.078Z" transform="translate(-113.23 0)"/><path class="c" d="M92.978,171.388c0,29.206,82.712,29.206,82.712,0,0-16.735-2.238-45.071-7.115-56.085a16.1,16.1,0,0,0-5.736-6.53,10.578,10.578,0,0,0-5.43-1.631,14.461,14.461,0,0,0-6.147,1.631c-5.279,2.494-10.6,6.971-16.929,6.971s-11.65-4.477-16.929-6.971a14.46,14.46,0,0,0-6.147-1.631,10.575,10.575,0,0,0-5.43,1.631,16.118,16.118,0,0,0-5.747,6.541C95.224,126.268,92.978,154.335,92.978,171.388Z" transform="translate(-32.794 -69.538)"/><path class="d" d="M239.965,115.3a16.1,16.1,0,0,0-5.736-6.53,10.578,10.578,0,0,0-5.43-1.631,12.6,12.6,0,0,0-4.48.918,11.016,11.016,0,0,1,1.2.712,15.617,15.617,0,0,1,5.02,6.53c4.268,11.015,6.227,39.35,6.227,56.085,0,13.955-16.528,21.242-33.79,21.861,21.553.677,44.107-6.61,44.107-21.861C247.08,154.653,244.842,126.317,239.965,115.3Z" transform="translate(-104.184 -69.538)"/><g transform="translate(79.075 71.64)"><path class="e" d="M262.08,213.761a2.711,2.711,0,0,1-2.712-2.712v-4.219a2.712,2.712,0,0,1,5.423,0v4.219A2.712,2.712,0,0,1,262.08,213.761Z" transform="translate(-219.861 -204.119)"/><path class="e" d="M149.515,213.761a2.712,2.712,0,0,1-2.712-2.712v-4.219a2.712,2.712,0,1,1,5.423,0v4.219A2.711,2.711,0,0,1,149.515,213.761Z" transform="translate(-146.803 -204.119)"/></g><path class="e" d="M248.912,182.795a14.335,14.335,0,0,1-8.365-2.553,2.712,2.712,0,0,1,3.185-4.39,9.541,9.541,0,0,0,10.36,0,2.712,2.712,0,1,1,3.186,4.39A14.335,14.335,0,0,1,248.912,182.795Z" transform="translate(-127.844 -113.797)"/><path class="e" d="M144.4,182.8a2.7,2.7,0,0,1-1.591-.517,9.542,9.542,0,0,0-10.36,0,2.712,2.712,0,0,1-3.185-4.39,14.984,14.984,0,0,1,16.731,0,2.712,2.712,0,0,1-1.6,4.907Z" transform="translate(-55.62 -113.798)"/><path class="g" d="M351.646,11.249A25.633,25.633,0,0,0,344.4,61.955a18.867,18.867,0,0,1-4.614,6.7,1.375,1.375,0,0,0,1.026,2.382,18.767,18.767,0,0,0,15.072-9.557,25.636,25.636,0,0,0-4.237-50.228Z" transform="translate(-182.378 -7.217)"/><path class="h" d="M381.9,11.249a25.385,25.385,0,0,0-5-.01c.035,0,.071.005.106.01,11.8,1.436,20.3,14.264,18.937,28.46C394.927,50.4,388.6,58.786,380.517,61.477c-2.119,4.577-5.8,8.061-10.38,9.21l-.068.015a1.336,1.336,0,0,0,1,.332,18.767,18.767,0,0,0,15.072-9.557A25.636,25.636,0,0,0,381.9,11.249Z" transform="translate(-212.635 -7.217)"/><path class="b" d="M112.119,482.137V468.7a2.712,2.712,0,1,1,5.423,0v13.437Zm69.277,0V468.7a2.712,2.712,0,0,0-5.423,0v13.437Z" transform="translate(-45.218 -302.439)"/><path class="i" d="M301.516,469.136a2.71,2.71,0,0,0-1.609-2.476,68.854,68.854,0,0,1-2.711,15.913h4.32V469.136Z" transform="translate(-165.338 -302.875)"/><g transform="translate(158.422 12.761)"><path class="j" d="M387.628,120.823a2.711,2.711,0,0,1-2.712-2.712v-.361a2.712,2.712,0,0,1,5.423,0v.361A2.712,2.712,0,0,1,387.628,120.823Z" transform="translate(-380.693 -87.424)"/><path class="j" d="M379.817,62.158a2.711,2.711,0,0,1-2.712-2.712V54.665a4.172,4.172,0,0,1,4.167-4.167h1.011a4.357,4.357,0,0,0,4.349-4.64,4.358,4.358,0,0,0-8.472-1.132,2.712,2.712,0,1,1-5.13-1.759,9.782,9.782,0,0,1,19.015,2.554,9.7,9.7,0,0,1-2.633,7.316,9.823,9.823,0,0,1-6.883,3.08v3.528A2.712,2.712,0,0,1,379.817,62.158Z" transform="translate(-372.882 -36.359)"/></g><path class="e" d="M228.6,279.005a2.7,2.7,0,0,1-1.917-.794,7.651,7.651,0,0,0-10.808,0,2.712,2.712,0,0,1-3.835-3.835,13.081,13.081,0,0,1,18.478,0,2.712,2.712,0,0,1-1.917,4.63Z" transform="translate(-109.552 -175.598)"/></g></svg>