<svg xmlns="http://www.w3.org/2000/svg" width="53.718" height="53.718" viewBox="0 0 53.718 53.718"><defs><style>.a{fill:#7dd505;}.b{fill:#91f20d;}.c{fill:#000766;}.d{fill:#010a8b;}.e{fill:#fff;}</style></defs><path class="a" d="M279.616,0,256,26.859l23.616,26.859h1.932a1.311,1.311,0,0,0,1.311-1.311V1.311A1.311,1.311,0,0,0,281.548,0Z" transform="translate(-229.141)"/><path class="b" d="M0,1.311v51.1a1.311,1.311,0,0,0,1.311,1.311H50.475V0H1.311A1.311,1.311,0,0,0,0,1.311Z"/><path class="c" d="M276.374,30.9,256,54.521l20.374,23.616h3.243V30.9Z" transform="translate(-229.141 -27.663)"/><rect class="d" width="43.99" height="47.233" transform="translate(3.242 3.242)"/><path class="e" d="M202.445,116.524a2.161,2.161,0,0,0-2.411.744l-5.4,7.134a2.162,2.162,0,1,0,3.446,2.611l1.519-2.006V143.54a2.162,2.162,0,0,0,4.323,0V118.573A2.162,2.162,0,0,0,202.445,116.524Z" transform="translate(-173.816 -104.197)"/></svg>