<svg xmlns="http://www.w3.org/2000/svg" width="90" height="90.001" viewBox="0 0 90 90.001"><defs><style>.a{fill:#91f20d;}.b{fill:#f5f6f7;}.c{fill:#dfe1e6;}.d{fill:#a9acd8;}.e{fill:#7dd505;}.f{fill:#6e73bd;}.g{fill:#c5c7e4;}</style></defs><path class="a" d="M251.895,283.344a1.271,1.271,0,0,0,.186-.049l.031-.011a1.335,1.335,0,0,0,.184-.083l.006,0,.027-.017c.026-.015.051-.031.076-.047l.05-.037.054-.042c.021-.017.041-.037.062-.056l.028-.025.019-.02,0,0c19.329-19.34,16.866-30.02,16.752-30.465a1.337,1.337,0,0,0-2.589.665c.005.021-20.264,16.887-20.264,16.887a1.336,1.336,0,1,0-2.337,1.3l6.285,11.314,0,0,.014.025.01.015a1.269,1.269,0,0,0,.078.121l.027.036a1.343,1.343,0,0,0,.1.113l.011.012.01.008a1.273,1.273,0,0,0,.136.115l.035.026a1.38,1.38,0,0,0,.16.1l.021.01a1.317,1.317,0,0,0,.171.069l.016.005a1.289,1.289,0,0,0,.185.042l.036.005a1.319,1.319,0,0,0,.185.012h.028a1.339,1.339,0,0,0,.173-.016Z" transform="translate(-201.122 -207.276)"/><path class="a" d="M92.987,147.646a1.336,1.336,0,0,0-.519-1.817s16.881-20.266,16.9-20.26l-.017,0,.665-2.589c-.446-.115-11.125-2.576-30.464,16.753l0,0-.02.02-.025.028c-.019.02-.038.04-.056.062s-.028.036-.041.054-.025.033-.037.05-.032.05-.047.076c-.005.009-.012.018-.017.027l0,.006a1.306,1.306,0,0,0-.083.183l-.011.033a1.3,1.3,0,0,0-.049.185c0,.011,0,.021,0,.032a1.289,1.289,0,0,0-.016.171c0,.01,0,.02,0,.03a1.318,1.318,0,0,0,.012.184l.005.037a1.349,1.349,0,0,0,.042.184l.005.016a1.326,1.326,0,0,0,.069.171l.01.021a1.332,1.332,0,0,0,.1.16l.026.035a1.4,1.4,0,0,0,.116.136l.008.009.012.011a1.39,1.39,0,0,0,.112.1l.036.026a1.237,1.237,0,0,0,.121.079l.015.01.025.014,0,0,11.313,6.284A1.336,1.336,0,0,0,92.987,147.646Z" transform="translate(-65.23 -101.227)"/><path class="b" d="M126.053,53.634a1.337,1.337,0,0,1-.3-1.419c3.521-9.293,16.992-25.956,24.958-33.922C163.434,5.566,177.024-.411,192.253.022a1.337,1.337,0,0,1,1.3,1.3c.433,15.228-5.543,28.818-18.272,41.547-7.965,7.965-24.628,21.436-33.921,24.958a1.337,1.337,0,0,1-1.419-.3Z" transform="translate(-103.573 0)"/><path class="c" d="M195.382,1.329a1.337,1.337,0,0,0-1.3-1.3c-.829-.024-1.653-.025-2.473-.01-.252,14.232-6.247,27.039-18.282,39.074-7.965,7.965-24.628,21.436-33.921,24.957a1.336,1.336,0,0,1-1.419-.3L127.883,53.643h0L141.77,67.529a1.337,1.337,0,0,0,1.419.3c9.293-3.521,25.956-16.993,33.921-24.958C189.838,30.148,195.815,16.558,195.382,1.329Z" transform="translate(-105.404 -0.009)"/><path class="d" d="M128.729,262.984a41.228,41.228,0,0,0-2.981,5.987,1.337,1.337,0,0,0,.3,1.419l13.886,13.886a1.337,1.337,0,0,0,1.419.3,41.2,41.2,0,0,0,5.987-2.981Z" transform="translate(-103.573 -216.756)"/><path class="a" d="M.964,361.958c-1.217-1.217-1.279-3.317-.189-6.42a48.057,48.057,0,0,1,4.045-8.178A86.3,86.3,0,0,1,14.3,334.126,10.247,10.247,0,0,1,28.8,348.618,86.346,86.346,0,0,1,15.562,358.1a48.119,48.119,0,0,1-8.178,4.045C4.28,363.236,2.181,363.174.964,361.958Z" transform="translate(-0.002 -272.919)"/><path class="e" d="M28.806,340.494a10.29,10.29,0,0,0-2.145-1.643A10.264,10.264,0,0,1,25.025,351.2a86.37,86.37,0,0,1-13.233,9.484,48.119,48.119,0,0,1-8.178,4.045,11.963,11.963,0,0,1-3.6.769,3.685,3.685,0,0,0,.958,2.823c1.216,1.216,3.316,1.278,6.42.189a48.116,48.116,0,0,0,8.178-4.045,86.319,86.319,0,0,0,13.233-9.484A10.259,10.259,0,0,0,28.806,340.494Z" transform="translate(-0.013 -279.287)"/><g transform="translate(23.438 53.255)"><path class="f" d="M164.846,332.027a1.336,1.336,0,0,0-1.89,0l-.945.945,1.89,1.89.945-.945A1.337,1.337,0,0,0,164.846,332.027Z" transform="translate(-156.97 -326.595)"/><path class="f" d="M136.17,303.35a1.336,1.336,0,0,0-1.89,0l-.945.945,1.89,1.89.945-.945A1.336,1.336,0,0,0,136.17,303.35Z" transform="translate(-133.335 -302.959)"/></g><g transform="translate(44.814 17.591)"><path class="g" d="M256.77,196.734h0a6.238,6.238,0,1,1,8.82,0,6.2,6.2,0,0,1-8.82,0Z" transform="translate(-254.943 -170.966)"/><path class="g" d="M342.818,110.715h0a6.237,6.237,0,1,1,8.821,0A6.244,6.244,0,0,1,342.818,110.715Z" transform="translate(-325.868 -100.071)"/></g><g transform="translate(45.177 17.952)"><path class="d" d="M355.156,108a6.234,6.234,0,0,0-4.139-5.873,6.239,6.239,0,0,1-7.973,7.966A6.237,6.237,0,0,0,355.156,108Z" transform="translate(-327.921 -102.129)"/><path class="d" d="M269.121,194.036a6.233,6.233,0,0,0-4.139-5.872,6.239,6.239,0,0,1-7.973,7.966,6.237,6.237,0,0,0,12.112-2.094Z" transform="translate(-257.009 -173.041)"/></g><path class="b" d="M48.231,379.079c-1.042-1.042-.375-2.7.414-4.183a44.018,44.018,0,0,1,2.982-4.641,84.492,84.492,0,0,1,5.767-7.27,4.9,4.9,0,1,1,6.931,6.931,84.465,84.465,0,0,1-7.269,5.767,43.938,43.938,0,0,1-4.641,2.981C50.931,379.454,49.273,380.12,48.231,379.079Z" transform="translate(-39.312 -297.997)"/><path class="a" d="M431.731.023A50.025,50.025,0,0,0,416.214,1.97l14.868,14.868a50.023,50.023,0,0,0,1.947-15.518A1.336,1.336,0,0,0,431.731.023Z" transform="translate(-343.051 -0.001)"/><path class="f" d="M143.712,319.1c.1-.04.2-.081.3-.123l.129-.054.353-.153.066-.029q.206-.091.415-.188l.147-.069.286-.135.169-.081.294-.144.151-.075.411-.208.207-.108.236-.123.233-.124.216-.116.245-.132.1-.053q.293-.161.59-.329l.162-.092.3-.172.147-.085.316-.184-3.781-3.781a41.21,41.21,0,0,1-5.987,2.981,1.336,1.336,0,0,1-1.419-.3l-10.105-10.1h0L141.774,319a1.337,1.337,0,0,0,1.419.3c.131-.05.265-.1.4-.156Z" transform="translate(-105.408 -251.485)"/><path class="e" d="M481.245.022a49.588,49.588,0,0,1-1.958,13.045l3.781,3.781c.084-.287.164-.576.242-.864l.05-.187q.34-1.27.609-2.554.033-.156.065-.312c.053-.258.1-.516.152-.775.019-.1.036-.2.054-.3q.117-.651.217-1.3c.026-.167.051-.334.075-.5q.045-.32.087-.64c.027-.209.052-.419.076-.628s.051-.438.073-.658q.05-.484.09-.969c.014-.163.025-.326.037-.489q.029-.4.053-.808c.008-.141.017-.281.024-.422q.029-.592.045-1.188c0-.1,0-.2.005-.3q.01-.492.011-.986c0-.121,0-.243,0-.364,0-.42-.008-.841-.019-1.263a1.337,1.337,0,0,0-1.3-1.3C482.888.008,482.064.007,481.245.022Z" transform="translate(-395.037 -0.01)"/></svg>