<svg xmlns="http://www.w3.org/2000/svg" xmlns:xlink="http://www.w3.org/1999/xlink" width="638.719" height="525.577" viewBox="0 0 638.719 525.577"><defs><style>.a{fill:url(#a);}.b{fill:#e8e9f5;}</style><linearGradient id="a" x1="-0.27" y1="0.512" x2="0.86" y2="0.574" gradientUnits="objectBoundingBox"><stop offset="0" stop-color="#fff"/><stop offset="1" stop-color="#f7f7fb"/></linearGradient></defs><g transform="matrix(-0.998, 0.07, -0.07, -0.998, 753.211, 947.408)"><path class="a" d="M590.166,790.324c-53.971,16.712-111.847,17.944-165.655,35.237S317.847,883.32,312.222,939.453c-4.928,49.229,28.938,95.809,71.613,120.865s92.973,32.936,141.784,40.374c76.331,11.622,156.846,22.778,228.807-5.206,57.643-22.29,104.13-68.614,133.324-122.864,35.028-64.919,46.092-146.317,13.76-212.63C875.942,707.648,794.591,645.4,732.066,671.83c-26.1,11.017-30.658,34.726-47.137,55.645C660.709,758.179,627.425,778.8,590.166,790.324Z" transform="translate(-229.92 -194.38)"/><path class="b" d="M602.312,1150.35a373.722,373.722,0,0,1-78.818-7.647c-68.661-14.783-123.19-54.877-145.736-107.268-27.706-64.291-6.113-148.246,52.507-204.193,26.8-25.568,59.666-45.208,91.416-64.175,43.628-26.033,88.743-52.971,117.17-95.3l1.929,1.3c-28.706,42.791-74.053,69.869-117.913,96.041-31.657,18.9-64.384,38.445-91,63.873-57.922,55.273-79.306,138.158-51.972,201.566,22.29,51.716,76.145,91.3,144.109,105.92,61.316,13.2,124.561,6.508,185.714,0l.256,2.324C674.528,1146.469,638.385,1150.35,602.312,1150.35Z" transform="translate(-158.343 -186.139)"/></g></svg>