<svg xmlns="http://www.w3.org/2000/svg" width="95.638" height="100" viewBox="0 0 95.638 100"><defs><style>.a{fill:#7dd505;}.b{fill:#adff3d;}.c{fill:#dfe1e6;}.d{fill:#c2c4c8;}.e{fill:#f5f6f7;}.f{fill:#c5c7e4;}.g{fill:#a9acd8;}.h{fill:#91f20d;}.i{fill:#a5a7aa;}.j{fill:#6e73bd;}</style></defs><g transform="translate(44.73 25.57)"><path class="a" d="M246.362,130.918a9.345,9.345,0,0,1-6.178,0v11.133h6.178Z" transform="translate(-240.184 -130.918)"/></g><g transform="translate(55.135 4.299)"><path class="b" d="M294.924,40.808a1.465,1.465,0,0,1-.538-2.828c4.518-1.782,9.541-4.853,10.538-6.442a3.274,3.274,0,0,0,.5-1.742V24.94h-8.291a1.465,1.465,0,0,1,0-2.93h8.779a2.444,2.444,0,0,1,2.442,2.442V29.8a6.2,6.2,0,0,1-.95,3.3c-1.761,2.806-8.261,6.157-11.945,7.61A1.462,1.462,0,0,1,294.924,40.808ZM305.915,24.94h0Z" transform="translate(-293.459 -22.01)"/></g><g transform="translate(25.605 4.299)"><path class="b" d="M155.7,40.808a1.462,1.462,0,0,1-.537-.1c-3.684-1.453-10.184-4.8-11.945-7.61a6.2,6.2,0,0,1-.95-3.3V24.452a2.444,2.444,0,0,1,2.442-2.442h8.779a1.465,1.465,0,0,1,0,2.93h-8.291V29.8a3.276,3.276,0,0,0,.5,1.742c1,1.589,6.02,4.659,10.538,6.442a1.465,1.465,0,0,1-.538,2.828Z" transform="translate(-142.265 -22.01)"/></g><path class="c" d="M62.844,352.835H86.12v29.622H62.844Z" transform="translate(-52.751 -283.922)"/><path class="d" d="M25.045,352.835h7.578v29.622H25.045Z" transform="translate(-22.334 -283.922)"/><path class="c" d="M371.664,352.835h22.518v29.622H371.664Z" transform="translate(-301.254 -283.922)"/><path class="d" d="M329.985,352.835h8.531v29.622h-8.531Z" transform="translate(-267.716 -283.922)"/><path class="e" d="M57.863,324.008a1.139,1.139,0,0,0-.624,1.015v4.147a1.139,1.139,0,0,0,.624,1.015H81.609v-6.178Z" transform="translate(-48.24 -260.725)"/><path class="c" d="M26.244,329.09V325.1a1.1,1.1,0,0,1,1.1-1.1H19.762a1.1,1.1,0,0,0-1.1,1.1v3.987a1.1,1.1,0,0,0,1.1,1.1H27.34A1.1,1.1,0,0,1,26.244,329.09Z" transform="translate(-17.201 -260.725)"/><path class="e" d="M394.332,324.008H371.664v6.178h22.668a1.1,1.1,0,0,0,1.1-1.1V325.1A1.1,1.1,0,0,0,394.332,324.008Z" transform="translate(-301.254 -260.725)"/><path class="c" d="M329.985,324.008h8.531v6.178h-8.531Z" transform="translate(-267.716 -260.725)"/><path class="f" d="M220.078,185.8H205.771a3.312,3.312,0,0,0-3.3,3.3v7.8H223.38v-7.8A3.312,3.312,0,0,0,220.078,185.8Z" transform="translate(-165.105 -149.513)"/><path class="g" d="M215.537,185.8h-9.766a3.312,3.312,0,0,0-3.3,3.3v7.8h9.766v-7.8A3.312,3.312,0,0,1,215.537,185.8Z" transform="translate(-165.105 -149.513)"/><path class="h" d="M191.713,7.5V19.388a13.656,13.656,0,0,0,9.028,12.848,10.407,10.407,0,0,0,7.055,0,13.656,13.656,0,0,0,9.028-12.848V7.5Z" transform="translate(-156.45 -6.035)"/><path class="a" d="M201.18,19.388V7.5h-9.467V19.388a13.656,13.656,0,0,0,9.029,12.848,10.407,10.407,0,0,0,7.055,0c.412-.148.813-.318,1.206-.5a13.649,13.649,0,0,1-7.822-12.344Z" transform="translate(-156.45 -6.035)"/><path class="c" d="M219.814,268.168h22.1v46.159h-22.1Z" transform="translate(-179.062 -215.791)"/><path class="d" d="M179.015,268.168h8.164v46.159h-8.164Z" transform="translate(-146.232 -215.791)"/><g transform="translate(0 97.07)"><path class="i" d="M105.339,499.93H12.631a1.465,1.465,0,0,1,0-2.93h92.709a1.465,1.465,0,0,1,0,2.93Z" transform="translate(-11.166 -497)"/></g><g transform="translate(46.354 62.094)"><path class="j" d="M249.965,329.86A1.465,1.465,0,0,1,248.5,328.4v-9.009a1.465,1.465,0,1,1,2.93,0V328.4A1.465,1.465,0,0,1,249.965,329.86Z" transform="translate(-248.5 -317.921)"/></g><g transform="translate(76.427 78.376)"><path class="j" d="M403.935,413.224a1.465,1.465,0,0,1-1.465-1.465V402.75a1.465,1.465,0,1,1,2.93,0v9.009A1.465,1.465,0,0,1,403.935,413.224Z" transform="translate(-402.47 -401.285)"/></g><g transform="translate(82.053 78.376)"><path class="j" d="M432.741,413.224a1.465,1.465,0,0,1-1.465-1.465V402.75a1.465,1.465,0,1,1,2.93,0v9.009A1.465,1.465,0,0,1,432.741,413.224Z" transform="translate(-431.276 -401.285)"/></g><g transform="translate(70.8 78.376)"><path class="j" d="M375.129,413.224a1.465,1.465,0,0,1-1.465-1.465V402.75a1.465,1.465,0,0,1,2.93,0v9.009A1.465,1.465,0,0,1,375.129,413.224Z" transform="translate(-373.664 -401.285)"/></g><g transform="translate(18.472 78.376)"><path class="j" d="M107.209,413.224a1.465,1.465,0,0,1-1.465-1.465V402.75a1.465,1.465,0,1,1,2.93,0v9.009A1.465,1.465,0,0,1,107.209,413.224Z" transform="translate(-105.744 -401.285)"/></g><g transform="translate(12.846 78.376)"><path class="j" d="M78.4,413.224a1.465,1.465,0,0,1-1.465-1.465V402.75a1.465,1.465,0,0,1,2.93,0v9.009A1.465,1.465,0,0,1,78.4,413.224Z" transform="translate(-76.937 -401.285)"/></g><g transform="translate(32.896)"><path class="b" d="M207.974,2.93H181.057a1.465,1.465,0,1,1,0-2.93h26.917a1.465,1.465,0,0,1,0,2.93Z" transform="translate(-179.592)"/></g><path class="e" d="M237.4,240.644H214.486a1.176,1.176,0,0,0-.476.945v4.288a1.176,1.176,0,0,0,.476.945H237.4a1.1,1.1,0,0,0,1.1-1.1V241.74a1.1,1.1,0,0,0-1.1-1.1Z" transform="translate(-174.392 -193.643)"/><path class="c" d="M180.8,245.726V241.74a1.1,1.1,0,0,1,1.1-1.1h-8.164a1.1,1.1,0,0,0-1.1,1.1v3.987a1.1,1.1,0,0,0,1.1,1.1h8.164A1.1,1.1,0,0,1,180.8,245.726Z" transform="translate(-141.098 -193.643)"/></svg>