<svg xmlns="http://www.w3.org/2000/svg" width="35" height="35" viewBox="0 0 35 35"><defs><style>.a{fill:#fff;}.b{fill:#010a8b;}</style></defs><path class="a" d="M17.5,0A17.5,17.5,0,1,0,35,17.5,17.5,17.5,0,0,0,17.5,0Zm0,32.5a15,15,0,1,1,15-15A15,15,0,0,1,17.5,32.5Z"/><g transform="translate(7.485 11.015)"><path class="b" d="M121.808,137.094a1.25,1.25,0,0,0-1.737,0h0L108.455,148.71l-4.116-4.116a1.25,1.25,0,0,0-1.8,1.737l.031.031,5,5a1.25,1.25,0,0,0,1.767,0l12.5-12.5A1.25,1.25,0,0,0,121.808,137.094Z" transform="translate(-102.19 -136.743)"/></g></svg>