<svg xmlns="http://www.w3.org/2000/svg" width="53.718" height="53.718" viewBox="0 0 53.718 53.718"><defs><style>.a{fill:#7dd505;}.b{fill:#91f20d;}.c{fill:#000766;}.d{fill:#010a8b;}.e{fill:#fff;}</style></defs><path class="a" d="M279.616,0,256,26.859l23.616,26.859h1.932a1.311,1.311,0,0,0,1.311-1.311V1.311A1.311,1.311,0,0,0,281.548,0Z" transform="translate(-229.141)"/><path class="b" d="M0,1.311v51.1a1.311,1.311,0,0,0,1.311,1.311H50.475V0H1.311A1.311,1.311,0,0,0,0,1.311Z"/><path class="c" d="M276.374,30.9,256,54.521l20.374,23.616h3.243V30.9Z" transform="translate(-229.141 -27.663)"/><rect class="d" width="43.99" height="47.233" transform="translate(3.242 3.242)"/><path class="e" d="M191.914,145.7a7.52,7.52,0,0,1-7.512-7.512,2.162,2.162,0,1,1,4.323,0,3.188,3.188,0,1,0,6.377,0v-1.783a3.192,3.192,0,0,0-3.188-3.188,2.162,2.162,0,0,1,0-4.323,3.192,3.192,0,0,0,3.188-3.188v-1.783a3.188,3.188,0,1,0-6.377,0,2.162,2.162,0,1,1-4.323,0,7.512,7.512,0,1,1,15.024,0v1.783a7.489,7.489,0,0,1-2.244,5.35,7.489,7.489,0,0,1,2.244,5.35v1.783A7.52,7.52,0,0,1,191.914,145.7Z" transform="translate(-165.055 -104.197)"/></svg>