<svg xmlns="http://www.w3.org/2000/svg" width="96" height="95.194" viewBox="0 0 96 95.194"><defs><style>.a{fill:#a5a7aa;}.b{fill:#dfe1e6;}.c{fill:#c2c4c8;}.d{fill:#fff;}.e{fill:#f5f6f7;}.f{fill:#a9acd8;}.g{fill:#91f20d;}.h{fill:#c5c7e4;}.i{fill:#6e73bd;}</style></defs><g transform="translate(0.477)"><path class="a" d="M218.26,386.26H192l3.283-19.7V360h19.7v6.565Z" transform="translate(-157.85 -291.066)"/><rect class="b" width="95.155" height="75.287" rx="5" transform="translate(-0.477 0.04)"/><path class="c" d="M27.283,24h88.629a3.283,3.283,0,0,1,3.283,3.283V37.13H24V27.283A3.283,3.283,0,0,1,27.283,24Z" transform="translate(-24.316 -24)"/><path class="c" d="M197.749,475.283H161.641a1.641,1.641,0,1,1,0-3.283h36.108a1.641,1.641,0,1,1,0,3.283Z" transform="translate(-132.415 -380.089)"/><path class="a" d="M240.206,339.283h-6.565a1.641,1.641,0,1,1,0-3.283h6.565a1.641,1.641,0,0,1,0,3.283Z" transform="translate(-189.643 -271.99)"/><circle class="d" cx="1.568" cy="1.568" r="1.568" transform="translate(4.751 5.268)"/><circle class="d" cx="1.568" cy="1.568" r="1.568" transform="translate(11.025 5.268)"/><ellipse class="d" cx="2.091" cy="1.568" rx="2.091" ry="1.568" transform="translate(17.299 5.268)"/><path class="e" d="M24,88h95.194v45.956H24Z" transform="translate(-24.316 -74.87)"/><g transform="translate(4.607 18.054)"><path class="f" d="M100.924,115.283H97.641a1.641,1.641,0,0,1,0-3.283h3.283a1.641,1.641,0,0,1,0,3.283Z" transform="translate(-86.152 -112)"/><path class="f" d="M148.924,115.283h-3.283a1.641,1.641,0,1,1,0-3.283h3.283a1.641,1.641,0,1,1,0,3.283Z" transform="translate(-124.305 -112)"/><path class="f" d="M100.924,275.283H97.641a1.641,1.641,0,0,1,0-3.283h3.283a1.641,1.641,0,0,1,0,3.283Z" transform="translate(-86.152 -239.174)"/><path class="f" d="M148.924,275.283h-3.283a1.641,1.641,0,1,1,0-3.283h3.283a1.641,1.641,0,1,1,0,3.283Z" transform="translate(-124.305 -239.174)"/><path class="f" d="M209.641,166.565A1.641,1.641,0,0,1,208,164.924v-3.283a1.641,1.641,0,0,1,3.283,0v3.283A1.641,1.641,0,0,1,209.641,166.565Z" transform="translate(-175.174 -150.152)"/><path class="f" d="M209.641,214.565A1.641,1.641,0,0,1,208,212.924v-3.283a1.641,1.641,0,0,1,3.283,0v3.283A1.641,1.641,0,0,1,209.641,214.565Z" transform="translate(-175.174 -188.305)"/><path class="f" d="M49.641,166.565A1.641,1.641,0,0,1,48,164.924v-3.283a1.641,1.641,0,0,1,3.283,0v3.283A1.641,1.641,0,0,1,49.641,166.565Z" transform="translate(-48 -150.152)"/><path class="f" d="M49.641,214.565A1.641,1.641,0,0,1,48,212.924v-3.283a1.641,1.641,0,0,1,3.283,0v3.283A1.641,1.641,0,0,1,49.641,214.565Z" transform="translate(-48 -188.305)"/><path class="f" d="M52.924,112H49.641A1.641,1.641,0,0,0,48,113.641v3.283a1.641,1.641,0,1,0,3.283,0v-1.641h1.641a1.641,1.641,0,0,0,0-3.283Z" transform="translate(-48 -112)"/><path class="f" d="M52.924,259.283H51.283v-1.641a1.641,1.641,0,0,0-3.283,0v3.283a1.641,1.641,0,0,0,1.641,1.641h3.283a1.641,1.641,0,1,0,0-3.283Z" transform="translate(-48 -226.457)"/><path class="f" d="M196.924,112h-3.283a1.641,1.641,0,0,0,0,3.283h1.641v1.641a1.641,1.641,0,1,0,3.283,0v-3.283A1.641,1.641,0,0,0,196.924,112Z" transform="translate(-162.457 -112)"/><path class="f" d="M196.924,256a1.641,1.641,0,0,0-1.641,1.641v1.641h-1.641a1.641,1.641,0,1,0,0,3.283h3.283a1.641,1.641,0,0,0,1.641-1.641v-3.283A1.641,1.641,0,0,0,196.924,256Z" transform="translate(-162.457 -226.457)"/></g><path class="g" d="M88,152h19.7v19.7H88Z" transform="translate(-75.186 -125.74)"/><path class="h" d="M251.489,195.283h-9.848a1.641,1.641,0,0,1,0-3.283h9.848a1.641,1.641,0,0,1,0,3.283Z" transform="translate(-196.002 -157.533)"/><path class="h" d="M347.9,195.283h-26.26a1.641,1.641,0,1,1,0-3.283H347.9a1.641,1.641,0,0,1,0,3.283Z" transform="translate(-259.589 -157.533)"/><path class="h" d="M360.619,227.283H337.641a1.641,1.641,0,1,1,0-3.283h22.978a1.641,1.641,0,0,1,0,3.283Z" transform="translate(-272.307 -182.968)"/><path class="h" d="M0,0H6.565V38.477a3.283,3.283,0,1,1-6.565,0V0Z" transform="translate(61.357 63.051) rotate(-45)"/><path class="f" d="M0,0H6.565V19.38H0Z" transform="translate(53.974 55.664) rotate(-45)"/><path class="g" d="M248,120h42.673v9.848H248Z" transform="translate(-202.361 -100.305)"/><path class="i" d="M248,232l2.578,11.169a6.565,6.565,0,0,0,4.8,4.893l5.384,1.346,4.642-4.642-1.346-5.384a6.565,6.565,0,0,0-4.893-4.8Z" transform="translate(-202.361 -189.327)"/></g></svg>