<svg xmlns="http://www.w3.org/2000/svg" width="182.754" height="200" viewBox="0 0 182.754 200"><defs><style>.a{fill:#fec9a3;}.b{fill:#010a8b;}.c{fill:#000766;}.d{fill:#ebeced;}.e{fill:#dfe1e6;}.f{fill:#c2c4c8;}.g{fill:#a9acd8;}.h{fill:#c5c7e4;}.i{fill:#a5a7aa;}.j{fill:#6e73bd;}.k{fill:#feb784;}.l{fill:#7a432a;}.m{fill:#743b20;}.n{fill:#fec093;}.o{fill:#91563a;}.p{fill:#fcb079;}</style></defs><g transform="translate(-40 -23.993)"><path class="a" d="M254.7,267.789,223.7,263.913a6.9,6.9,0,0,1-6.041-6.844V240H183.172v17.075a6.884,6.884,0,0,1-6.031,6.835L146.1,267.786A20.665,20.665,0,0,0,128,288.294v48.255a10.345,10.345,0,0,0,10.345,10.345H262.48a10.345,10.345,0,0,0,10.345-10.345V288.318A20.689,20.689,0,0,0,254.7,267.789Z" transform="translate(-50.071 -122.903)"/><path class="b" d="M254.7,299.227l-30.356-3.793a26.5,26.5,0,0,1-46.766-.18c-.145.028-.282.077-.431.1l-31.034,3.876A20.668,20.668,0,0,0,128,319.742V367.99a10.345,10.345,0,0,0,10.345,10.345H262.479a10.345,10.345,0,0,0,10.345-10.345V319.756A20.689,20.689,0,0,0,254.7,299.227Z" transform="translate(-50.07 -154.341)"/><path class="c" d="M307.33,326.146a20.689,20.689,0,0,0-14.271-19.661c-28.749,42.224-73.884,66.169-104.413,78.237H296.985a10.345,10.345,0,0,0,10.345-10.345Z" transform="translate(-84.576 -160.731)"/><path class="d" d="M85.486,139.886l-19.607,7.849-9.306-12.353L40,113.37,48.892,80,74.784,95.094l4.431,2.582Z" transform="translate(0 -31.866)"/><path class="e" d="M107.363,159.812l-19.607,7.849L78.45,155.308A172.174,172.174,0,0,0,96.661,115.02l4.431,2.582Z" transform="translate(-21.877 -51.792)"/><path class="f" d="M68.334,115.649a6.781,6.781,0,0,0,0,5.278,7.031,7.031,0,0,0,9.072,3.75,6.888,6.888,0,0,0,3.827-3.756,6.777,6.777,0,0,0,0-5.277,6.961,6.961,0,0,0-5.565-4.163l-12-28.593L58.709,80l-1.452,5.449,12.026,28.636a6.856,6.856,0,0,0-.948,1.563Z" transform="translate(-9.819 -31.866)"/><path class="f" d="M117.556,212.87,84.878,225.949l5.358,12.762,32.678-13.079Z" transform="translate(-25.535 -107.466)"/><path class="g" d="M168.181,332.073c-3.137-10.427-6.588-20.765-10.425-30.966a377.107,377.107,0,0,0-27.768-58.628L97.31,255.558c9,33.5,19.875,62.718,37.55,92.746h37.746c-.662-4.741-2.845-10.986-4.424-16.231Z" transform="translate(-32.608 -124.313)"/><path class="h" d="M133.625,305.657q-1.111-3.319-2.16-6.659l6.58-2.064q1.028,3.276,2.12,6.534Z" transform="translate(-52.041 -155.297)"/><path class="h" d="M158,368.1a377.319,377.319,0,0,1-16.225-38.64l6.5-2.31a370.212,370.212,0,0,0,15.926,37.93Z" transform="translate(-57.905 -172.488)"/><path class="i" d="M144.719,212.87l-12.1,4.843,5.453,12.724,12.007-4.805Z" transform="translate(-52.697 -107.466)"/><path class="j" d="M198.274,332.073c-3.137-10.427-6.588-20.765-10.425-30.966a377.107,377.107,0,0,0-27.768-58.628l-9.881,3.955c22.424,37.115,35.734,78.947,41.742,101.87H202.7c-.662-4.741-2.845-10.986-4.424-16.231Z" transform="translate(-62.701 -124.313)"/><path class="k" d="M231.446,378.345,128,388.689v20.689a10.345,10.345,0,0,0,10.345,10.345h19.083a10.342,10.342,0,0,0,3.137-.487l70.881-22.553,24.137-4.545,17.241,6.9V371.448L252.135,368Z" transform="translate(-50.07 -195.732)"/><path class="a" d="M169.378,378.345l103.446,10.345v20.689a10.345,10.345,0,0,1-10.345,10.345H243.4a10.342,10.342,0,0,1-3.137-.487l-70.881-22.553-24.137-4.545L128,399.034V371.448L148.689,368Z" transform="translate(-50.07 -195.732)"/><path class="k" d="M274.178,260.689a25.976,25.976,0,0,0,16.3-5.771V240H256v14.919a25.975,25.975,0,0,0,16.3,5.771Z" transform="translate(-122.899 -122.903)"/><path class="l" d="M275.333,73.818,264.954,110.2H209.783c-6.323-10.409-7.793-13.6-9.965-21.706-3.168-11.819-7.435-23.861-6.8-36.258.5-9.672,5.4-20.461,16.767-20.461l12.651-4.952a40.517,40.517,0,0,1,5.733-1.772,41,41,0,0,1,34.456,7.6c.724.569,1.427,1.155,2.1,1.767,10.888,9.8,14.629,25.314,10.608,39.4Z" transform="translate(-87.027)"/><path class="m" d="M321.825,73.822,311.446,110.2h-14.56a31.343,31.343,0,0,0,.767-6.9V55.033a31.045,31.045,0,0,0-22.989-29.976,41,41,0,0,1,34.449,7.6c.724.569,1.427,1.155,2.1,1.767C322.106,44.219,325.847,59.736,321.825,73.822Z" transform="translate(-133.519 -0.003)"/><path class="k" d="M371.448,136H368v20.689h3.448a10.345,10.345,0,0,0,0-20.689Z" transform="translate(-186.624 -63.729)"/><path class="k" d="M202.517,136h-.172a10.345,10.345,0,0,0,0,20.689h3.448V136Z" transform="translate(-86.484 -63.729)"/><path class="a" d="M286.067,81.241v37.646a37.41,37.41,0,0,1-13.467,28.75,25.986,25.986,0,0,1-16.632,6.017H254.1c-.651,0-1.3-.026-1.94-.073a25.972,25.972,0,0,1-14.7-5.948A37.413,37.413,0,0,1,224,118.887V95.034a41.077,41.077,0,0,0,6.9-22.775V64h7.189c13.172,0,20.4,17.241,30.741,17.241Z" transform="translate(-104.692 -22.763)"/><path class="n" d="M323.239,104v37.646a37.41,37.41,0,0,1-13.466,28.75,25.986,25.986,0,0,1-16.632,6.017H291.27c-.651,0-1.3-.026-1.94-.073A31.031,31.031,0,0,0,306,148.826V104Z" transform="translate(-141.863 -45.522)"/><path class="o" d="M206.168,152.336a6.168,6.168,0,1,1,6.168-6.168,6.168,6.168,0,0,1-6.168,6.168Z" transform="translate(-73.508 -67.556)"/><path class="o" d="M290.168,152.336a6.168,6.168,0,1,1,6.168-6.168A6.168,6.168,0,0,1,290.168,152.336Z" transform="translate(-120.501 -67.556)"/><path class="p" d="M240,152h7.049v17.622H240Z" transform="translate(-95.886 -74.27)"/><path class="p" d="M244.638,211.884H232v-7.049h12.638a8.452,8.452,0,0,0,6.016-2.492l4.984,4.984A15.455,15.455,0,0,1,244.638,211.884Z" transform="translate(-91.411 -102.434)"/></g></svg>